<?xml version="1.0" encoding="utf-8" standalone="no"?>
<!DOCTYPE svg PUBLIC "-//W3C//DTD SVG 1.1//EN"
  "http://www.w3.org/Graphics/SVG/1.1/DTD/svg11.dtd">
<!-- Created with matplotlib (https://matplotlib.org/) -->
<svg height="360pt" version="1.1" viewBox="0 0 720 360" width="720pt" xmlns="http://www.w3.org/2000/svg" xmlns:xlink="http://www.w3.org/1999/xlink">
 <metadata>
  <rdf:RDF xmlns:cc="http://creativecommons.org/ns#" xmlns:dc="http://purl.org/dc/elements/1.1/" xmlns:rdf="http://www.w3.org/1999/02/22-rdf-syntax-ns#">
   <cc:Work>
    <dc:type rdf:resource="http://purl.org/dc/dcmitype/StillImage"/>
    <dc:date>2021-02-06T00:54:41.408328</dc:date>
    <dc:format>image/svg+xml</dc:format>
    <dc:creator>
     <cc:Agent>
      <dc:title>Matplotlib v3.3.2, https://matplotlib.org/</dc:title>
     </cc:Agent>
    </dc:creator>
   </cc:Work>
  </rdf:RDF>
 </metadata>
 <defs>
  <style type="text/css">*{stroke-linecap:butt;stroke-linejoin:round;}</style>
 </defs>
 <g id="figure_1">
  <g id="patch_1">
   <path d="M 0 360 
L 720 360 
L 720 0 
L 0 0 
z
" style="fill:#ffffff;"/>
  </g>
  <g id="axes_1">
   <g id="patch_2">
    <path d="M 97.94 293.2 
L 340.429463 293.2 
L 340.429463 18.36 
L 97.94 18.36 
z
" style="fill:#ffffff;"/>
   </g>
   <g id="matplotlib.axis_1">
    <g id="xtick_1">
     <g id="line2d_1">
      <defs>
       <path d="M 0 0 
L 0 3.5 
" id="m68aff17938" style="stroke:#000000;stroke-width:0.8;"/>
      </defs>
      <g>
       <use style="stroke:#000000;stroke-width:0.8;" x="97.94" xlink:href="#m68aff17938" y="293.2"/>
      </g>
     </g>
     <g id="text_1">
      <!-- 0 -->
      <g transform="translate(92.531875 313.117344)scale(0.17 -0.17)">
       <defs>
        <path d="M 31.78125 66.40625 
Q 24.171875 66.40625 20.328125 58.90625 
Q 16.5 51.421875 16.5 36.375 
Q 16.5 21.390625 20.328125 13.890625 
Q 24.171875 6.390625 31.78125 6.390625 
Q 39.453125 6.390625 43.28125 13.890625 
Q 47.125 21.390625 47.125 36.375 
Q 47.125 51.421875 43.28125 58.90625 
Q 39.453125 66.40625 31.78125 66.40625 
z
M 31.78125 74.21875 
Q 44.046875 74.21875 50.515625 64.515625 
Q 56.984375 54.828125 56.984375 36.375 
Q 56.984375 17.96875 50.515625 8.265625 
Q 44.046875 -1.421875 31.78125 -1.421875 
Q 19.53125 -1.421875 13.0625 8.265625 
Q 6.59375 17.96875 6.59375 36.375 
Q 6.59375 54.828125 13.0625 64.515625 
Q 19.53125 74.21875 31.78125 74.21875 
z
" id="DejaVuSans-48"/>
       </defs>
       <use xlink:href="#DejaVuSans-48"/>
      </g>
     </g>
    </g>
    <g id="xtick_2">
     <g id="line2d_2">
      <g>
       <use style="stroke:#000000;stroke-width:0.8;" x="158.562366" xlink:href="#m68aff17938" y="293.2"/>
      </g>
     </g>
     <g id="text_2">
      <!-- 25 -->
      <g transform="translate(147.746116 313.117344)scale(0.17 -0.17)">
       <defs>
        <path d="M 19.1875 8.296875 
L 53.609375 8.296875 
L 53.609375 0 
L 7.328125 0 
L 7.328125 8.296875 
Q 12.9375 14.109375 22.625 23.890625 
Q 32.328125 33.6875 34.8125 36.53125 
Q 39.546875 41.84375 41.421875 45.53125 
Q 43.3125 49.21875 43.3125 52.78125 
Q 43.3125 58.59375 39.234375 62.25 
Q 35.15625 65.921875 28.609375 65.921875 
Q 23.96875 65.921875 18.8125 64.3125 
Q 13.671875 62.703125 7.8125 59.421875 
L 7.8125 69.390625 
Q 13.765625 71.78125 18.9375 73 
Q 24.125 74.21875 28.421875 74.21875 
Q 39.75 74.21875 46.484375 68.546875 
Q 53.21875 62.890625 53.21875 53.421875 
Q 53.21875 48.921875 51.53125 44.890625 
Q 49.859375 40.875 45.40625 35.40625 
Q 44.1875 33.984375 37.640625 27.21875 
Q 31.109375 20.453125 19.1875 8.296875 
z
" id="DejaVuSans-50"/>
        <path d="M 10.796875 72.90625 
L 49.515625 72.90625 
L 49.515625 64.59375 
L 19.828125 64.59375 
L 19.828125 46.734375 
Q 21.96875 47.46875 24.109375 47.828125 
Q 26.265625 48.1875 28.421875 48.1875 
Q 40.625 48.1875 47.75 41.5 
Q 54.890625 34.8125 54.890625 23.390625 
Q 54.890625 11.625 47.5625 5.09375 
Q 40.234375 -1.421875 26.90625 -1.421875 
Q 22.3125 -1.421875 17.546875 -0.640625 
Q 12.796875 0.140625 7.71875 1.703125 
L 7.71875 11.625 
Q 12.109375 9.234375 16.796875 8.0625 
Q 21.484375 6.890625 26.703125 6.890625 
Q 35.15625 6.890625 40.078125 11.328125 
Q 45.015625 15.765625 45.015625 23.390625 
Q 45.015625 31 40.078125 35.4375 
Q 35.15625 39.890625 26.703125 39.890625 
Q 22.75 39.890625 18.8125 39.015625 
Q 14.890625 38.140625 10.796875 36.28125 
z
" id="DejaVuSans-53"/>
       </defs>
       <use xlink:href="#DejaVuSans-50"/>
       <use x="63.623047" xlink:href="#DejaVuSans-53"/>
      </g>
     </g>
    </g>
    <g id="xtick_3">
     <g id="line2d_3">
      <g>
       <use style="stroke:#000000;stroke-width:0.8;" x="219.184731" xlink:href="#m68aff17938" y="293.2"/>
      </g>
     </g>
     <g id="text_3">
      <!-- 50 -->
      <g transform="translate(208.368481 313.117344)scale(0.17 -0.17)">
       <use xlink:href="#DejaVuSans-53"/>
       <use x="63.623047" xlink:href="#DejaVuSans-48"/>
      </g>
     </g>
    </g>
    <g id="xtick_4">
     <g id="line2d_4">
      <g>
       <use style="stroke:#000000;stroke-width:0.8;" x="279.807097" xlink:href="#m68aff17938" y="293.2"/>
      </g>
     </g>
     <g id="text_4">
      <!-- 75 -->
      <g transform="translate(268.990847 313.117344)scale(0.17 -0.17)">
       <defs>
        <path d="M 8.203125 72.90625 
L 55.078125 72.90625 
L 55.078125 68.703125 
L 28.609375 0 
L 18.3125 0 
L 43.21875 64.59375 
L 8.203125 64.59375 
z
" id="DejaVuSans-55"/>
       </defs>
       <use xlink:href="#DejaVuSans-55"/>
       <use x="63.623047" xlink:href="#DejaVuSans-53"/>
      </g>
     </g>
    </g>
    <g id="xtick_5">
     <g id="line2d_5">
      <g>
       <use style="stroke:#000000;stroke-width:0.8;" x="340.429463" xlink:href="#m68aff17938" y="293.2"/>
      </g>
     </g>
     <g id="text_5">
      <!-- 100 -->
      <g transform="translate(324.205088 313.117344)scale(0.17 -0.17)">
       <defs>
        <path d="M 12.40625 8.296875 
L 28.515625 8.296875 
L 28.515625 63.921875 
L 10.984375 60.40625 
L 10.984375 69.390625 
L 28.421875 72.90625 
L 38.28125 72.90625 
L 38.28125 8.296875 
L 54.390625 8.296875 
L 54.390625 0 
L 12.40625 0 
z
" id="DejaVuSans-49"/>
       </defs>
       <use xlink:href="#DejaVuSans-49"/>
       <use x="63.623047" xlink:href="#DejaVuSans-48"/>
       <use x="127.246094" xlink:href="#DejaVuSans-48"/>
      </g>
     </g>
    </g>
    <g id="text_6">
     <!-- credit score -->
     <g transform="translate(159.384044 336.153625)scale(0.204 -0.204)">
      <defs>
       <path d="M 48.78125 52.59375 
L 48.78125 44.1875 
Q 44.96875 46.296875 41.140625 47.34375 
Q 37.3125 48.390625 33.40625 48.390625 
Q 24.65625 48.390625 19.8125 42.84375 
Q 14.984375 37.3125 14.984375 27.296875 
Q 14.984375 17.28125 19.8125 11.734375 
Q 24.65625 6.203125 33.40625 6.203125 
Q 37.3125 6.203125 41.140625 7.25 
Q 44.96875 8.296875 48.78125 10.40625 
L 48.78125 2.09375 
Q 45.015625 0.34375 40.984375 -0.53125 
Q 36.96875 -1.421875 32.421875 -1.421875 
Q 20.0625 -1.421875 12.78125 6.34375 
Q 5.515625 14.109375 5.515625 27.296875 
Q 5.515625 40.671875 12.859375 48.328125 
Q 20.21875 56 33.015625 56 
Q 37.15625 56 41.109375 55.140625 
Q 45.0625 54.296875 48.78125 52.59375 
z
" id="DejaVuSans-99"/>
       <path d="M 41.109375 46.296875 
Q 39.59375 47.171875 37.8125 47.578125 
Q 36.03125 48 33.890625 48 
Q 26.265625 48 22.1875 43.046875 
Q 18.109375 38.09375 18.109375 28.8125 
L 18.109375 0 
L 9.078125 0 
L 9.078125 54.6875 
L 18.109375 54.6875 
L 18.109375 46.1875 
Q 20.953125 51.171875 25.484375 53.578125 
Q 30.03125 56 36.53125 56 
Q 37.453125 56 38.578125 55.875 
Q 39.703125 55.765625 41.0625 55.515625 
z
" id="DejaVuSans-114"/>
       <path d="M 56.203125 29.59375 
L 56.203125 25.203125 
L 14.890625 25.203125 
Q 15.484375 15.921875 20.484375 11.0625 
Q 25.484375 6.203125 34.421875 6.203125 
Q 39.59375 6.203125 44.453125 7.46875 
Q 49.3125 8.734375 54.109375 11.28125 
L 54.109375 2.78125 
Q 49.265625 0.734375 44.1875 -0.34375 
Q 39.109375 -1.421875 33.890625 -1.421875 
Q 20.796875 -1.421875 13.15625 6.1875 
Q 5.515625 13.8125 5.515625 26.8125 
Q 5.515625 40.234375 12.765625 48.109375 
Q 20.015625 56 32.328125 56 
Q 43.359375 56 49.78125 48.890625 
Q 56.203125 41.796875 56.203125 29.59375 
z
M 47.21875 32.234375 
Q 47.125 39.59375 43.09375 43.984375 
Q 39.0625 48.390625 32.421875 48.390625 
Q 24.90625 48.390625 20.390625 44.140625 
Q 15.875 39.890625 15.1875 32.171875 
z
" id="DejaVuSans-101"/>
       <path d="M 45.40625 46.390625 
L 45.40625 75.984375 
L 54.390625 75.984375 
L 54.390625 0 
L 45.40625 0 
L 45.40625 8.203125 
Q 42.578125 3.328125 38.25 0.953125 
Q 33.9375 -1.421875 27.875 -1.421875 
Q 17.96875 -1.421875 11.734375 6.484375 
Q 5.515625 14.40625 5.515625 27.296875 
Q 5.515625 40.1875 11.734375 48.09375 
Q 17.96875 56 27.875 56 
Q 33.9375 56 38.25 53.625 
Q 42.578125 51.265625 45.40625 46.390625 
z
M 14.796875 27.296875 
Q 14.796875 17.390625 18.875 11.75 
Q 22.953125 6.109375 30.078125 6.109375 
Q 37.203125 6.109375 41.296875 11.75 
Q 45.40625 17.390625 45.40625 27.296875 
Q 45.40625 37.203125 41.296875 42.84375 
Q 37.203125 48.484375 30.078125 48.484375 
Q 22.953125 48.484375 18.875 42.84375 
Q 14.796875 37.203125 14.796875 27.296875 
z
" id="DejaVuSans-100"/>
       <path d="M 9.421875 54.6875 
L 18.40625 54.6875 
L 18.40625 0 
L 9.421875 0 
z
M 9.421875 75.984375 
L 18.40625 75.984375 
L 18.40625 64.59375 
L 9.421875 64.59375 
z
" id="DejaVuSans-105"/>
       <path d="M 18.3125 70.21875 
L 18.3125 54.6875 
L 36.8125 54.6875 
L 36.8125 47.703125 
L 18.3125 47.703125 
L 18.3125 18.015625 
Q 18.3125 11.328125 20.140625 9.421875 
Q 21.96875 7.515625 27.59375 7.515625 
L 36.8125 7.515625 
L 36.8125 0 
L 27.59375 0 
Q 17.1875 0 13.234375 3.875 
Q 9.28125 7.765625 9.28125 18.015625 
L 9.28125 47.703125 
L 2.6875 47.703125 
L 2.6875 54.6875 
L 9.28125 54.6875 
L 9.28125 70.21875 
z
" id="DejaVuSans-116"/>
       <path id="DejaVuSans-32"/>
       <path d="M 44.28125 53.078125 
L 44.28125 44.578125 
Q 40.484375 46.53125 36.375 47.5 
Q 32.28125 48.484375 27.875 48.484375 
Q 21.1875 48.484375 17.84375 46.4375 
Q 14.5 44.390625 14.5 40.28125 
Q 14.5 37.15625 16.890625 35.375 
Q 19.28125 33.59375 26.515625 31.984375 
L 29.59375 31.296875 
Q 39.15625 29.25 43.1875 25.515625 
Q 47.21875 21.78125 47.21875 15.09375 
Q 47.21875 7.46875 41.1875 3.015625 
Q 35.15625 -1.421875 24.609375 -1.421875 
Q 20.21875 -1.421875 15.453125 -0.5625 
Q 10.6875 0.296875 5.421875 2 
L 5.421875 11.28125 
Q 10.40625 8.6875 15.234375 7.390625 
Q 20.0625 6.109375 24.8125 6.109375 
Q 31.15625 6.109375 34.5625 8.28125 
Q 37.984375 10.453125 37.984375 14.40625 
Q 37.984375 18.0625 35.515625 20.015625 
Q 33.0625 21.96875 24.703125 23.78125 
L 21.578125 24.515625 
Q 13.234375 26.265625 9.515625 29.90625 
Q 5.8125 33.546875 5.8125 39.890625 
Q 5.8125 47.609375 11.28125 51.796875 
Q 16.75 56 26.8125 56 
Q 31.78125 56 36.171875 55.265625 
Q 40.578125 54.546875 44.28125 53.078125 
z
" id="DejaVuSans-115"/>
       <path d="M 30.609375 48.390625 
Q 23.390625 48.390625 19.1875 42.75 
Q 14.984375 37.109375 14.984375 27.296875 
Q 14.984375 17.484375 19.15625 11.84375 
Q 23.34375 6.203125 30.609375 6.203125 
Q 37.796875 6.203125 41.984375 11.859375 
Q 46.1875 17.53125 46.1875 27.296875 
Q 46.1875 37.015625 41.984375 42.703125 
Q 37.796875 48.390625 30.609375 48.390625 
z
M 30.609375 56 
Q 42.328125 56 49.015625 48.375 
Q 55.71875 40.765625 55.71875 27.296875 
Q 55.71875 13.875 49.015625 6.21875 
Q 42.328125 -1.421875 30.609375 -1.421875 
Q 18.84375 -1.421875 12.171875 6.21875 
Q 5.515625 13.875 5.515625 27.296875 
Q 5.515625 40.765625 12.171875 48.375 
Q 18.84375 56 30.609375 56 
z
" id="DejaVuSans-111"/>
      </defs>
      <use xlink:href="#DejaVuSans-99"/>
      <use x="54.980469" xlink:href="#DejaVuSans-114"/>
      <use x="93.84375" xlink:href="#DejaVuSans-101"/>
      <use x="155.367188" xlink:href="#DejaVuSans-100"/>
      <use x="218.84375" xlink:href="#DejaVuSans-105"/>
      <use x="246.626953" xlink:href="#DejaVuSans-116"/>
      <use x="285.835938" xlink:href="#DejaVuSans-32"/>
      <use x="317.623047" xlink:href="#DejaVuSans-115"/>
      <use x="369.722656" xlink:href="#DejaVuSans-99"/>
      <use x="424.703125" xlink:href="#DejaVuSans-111"/>
      <use x="485.884766" xlink:href="#DejaVuSans-114"/>
      <use x="524.748047" xlink:href="#DejaVuSans-101"/>
     </g>
    </g>
   </g>
   <g id="matplotlib.axis_2">
    <g id="ytick_1">
     <g id="line2d_6">
      <defs>
       <path d="M 0 0 
L -3.5 0 
" id="m7ad4b55104" style="stroke:#000000;stroke-width:0.8;"/>
      </defs>
      <g>
       <use style="stroke:#000000;stroke-width:0.8;" x="97.94" xlink:href="#m7ad4b55104" y="281.541132"/>
      </g>
     </g>
     <g id="text_7">
      <!-- 0% -->
      <g transform="translate(63.971094 287.999804)scale(0.17 -0.17)">
       <defs>
        <path d="M 72.703125 32.078125 
Q 68.453125 32.078125 66.03125 28.46875 
Q 63.625 24.859375 63.625 18.40625 
Q 63.625 12.0625 66.03125 8.421875 
Q 68.453125 4.78125 72.703125 4.78125 
Q 76.859375 4.78125 79.265625 8.421875 
Q 81.6875 12.0625 81.6875 18.40625 
Q 81.6875 24.8125 79.265625 28.4375 
Q 76.859375 32.078125 72.703125 32.078125 
z
M 72.703125 38.28125 
Q 80.421875 38.28125 84.953125 32.90625 
Q 89.5 27.546875 89.5 18.40625 
Q 89.5 9.28125 84.9375 3.921875 
Q 80.375 -1.421875 72.703125 -1.421875 
Q 64.890625 -1.421875 60.34375 3.921875 
Q 55.8125 9.28125 55.8125 18.40625 
Q 55.8125 27.59375 60.375 32.9375 
Q 64.9375 38.28125 72.703125 38.28125 
z
M 22.3125 68.015625 
Q 18.109375 68.015625 15.6875 64.375 
Q 13.28125 60.75 13.28125 54.390625 
Q 13.28125 47.953125 15.671875 44.328125 
Q 18.0625 40.71875 22.3125 40.71875 
Q 26.5625 40.71875 28.96875 44.328125 
Q 31.390625 47.953125 31.390625 54.390625 
Q 31.390625 60.6875 28.953125 64.34375 
Q 26.515625 68.015625 22.3125 68.015625 
z
M 66.40625 74.21875 
L 74.21875 74.21875 
L 28.609375 -1.421875 
L 20.796875 -1.421875 
z
M 22.3125 74.21875 
Q 30.03125 74.21875 34.609375 68.875 
Q 39.203125 63.53125 39.203125 54.390625 
Q 39.203125 45.171875 34.640625 39.84375 
Q 30.078125 34.515625 22.3125 34.515625 
Q 14.546875 34.515625 10.03125 39.859375 
Q 5.515625 45.21875 5.515625 54.390625 
Q 5.515625 63.484375 10.046875 68.84375 
Q 14.59375 74.21875 22.3125 74.21875 
z
" id="DejaVuSans-37"/>
       </defs>
       <use xlink:href="#DejaVuSans-48"/>
       <use x="63.623047" xlink:href="#DejaVuSans-37"/>
      </g>
     </g>
    </g>
    <g id="ytick_2">
     <g id="line2d_7">
      <g>
       <use style="stroke:#000000;stroke-width:0.8;" x="97.94" xlink:href="#m7ad4b55104" y="231.004209"/>
      </g>
     </g>
     <g id="text_8">
      <!-- 20% -->
      <g transform="translate(53.154844 237.462881)scale(0.17 -0.17)">
       <use xlink:href="#DejaVuSans-50"/>
       <use x="63.623047" xlink:href="#DejaVuSans-48"/>
       <use x="127.246094" xlink:href="#DejaVuSans-37"/>
      </g>
     </g>
    </g>
    <g id="ytick_3">
     <g id="line2d_8">
      <g>
       <use style="stroke:#000000;stroke-width:0.8;" x="97.94" xlink:href="#m7ad4b55104" y="180.467287"/>
      </g>
     </g>
     <g id="text_9">
      <!-- 40% -->
      <g transform="translate(53.154844 186.925959)scale(0.17 -0.17)">
       <defs>
        <path d="M 37.796875 64.3125 
L 12.890625 25.390625 
L 37.796875 25.390625 
z
M 35.203125 72.90625 
L 47.609375 72.90625 
L 47.609375 25.390625 
L 58.015625 25.390625 
L 58.015625 17.1875 
L 47.609375 17.1875 
L 47.609375 0 
L 37.796875 0 
L 37.796875 17.1875 
L 4.890625 17.1875 
L 4.890625 26.703125 
z
" id="DejaVuSans-52"/>
       </defs>
       <use xlink:href="#DejaVuSans-52"/>
       <use x="63.623047" xlink:href="#DejaVuSans-48"/>
       <use x="127.246094" xlink:href="#DejaVuSans-37"/>
      </g>
     </g>
    </g>
    <g id="ytick_4">
     <g id="line2d_9">
      <g>
       <use style="stroke:#000000;stroke-width:0.8;" x="97.94" xlink:href="#m7ad4b55104" y="129.930364"/>
      </g>
     </g>
     <g id="text_10">
      <!-- 60% -->
      <g transform="translate(53.154844 136.389036)scale(0.17 -0.17)">
       <defs>
        <path d="M 33.015625 40.375 
Q 26.375 40.375 22.484375 35.828125 
Q 18.609375 31.296875 18.609375 23.390625 
Q 18.609375 15.53125 22.484375 10.953125 
Q 26.375 6.390625 33.015625 6.390625 
Q 39.65625 6.390625 43.53125 10.953125 
Q 47.40625 15.53125 47.40625 23.390625 
Q 47.40625 31.296875 43.53125 35.828125 
Q 39.65625 40.375 33.015625 40.375 
z
M 52.59375 71.296875 
L 52.59375 62.3125 
Q 48.875 64.0625 45.09375 64.984375 
Q 41.3125 65.921875 37.59375 65.921875 
Q 27.828125 65.921875 22.671875 59.328125 
Q 17.53125 52.734375 16.796875 39.40625 
Q 19.671875 43.65625 24.015625 45.921875 
Q 28.375 48.1875 33.59375 48.1875 
Q 44.578125 48.1875 50.953125 41.515625 
Q 57.328125 34.859375 57.328125 23.390625 
Q 57.328125 12.15625 50.6875 5.359375 
Q 44.046875 -1.421875 33.015625 -1.421875 
Q 20.359375 -1.421875 13.671875 8.265625 
Q 6.984375 17.96875 6.984375 36.375 
Q 6.984375 53.65625 15.1875 63.9375 
Q 23.390625 74.21875 37.203125 74.21875 
Q 40.921875 74.21875 44.703125 73.484375 
Q 48.484375 72.75 52.59375 71.296875 
z
" id="DejaVuSans-54"/>
       </defs>
       <use xlink:href="#DejaVuSans-54"/>
       <use x="63.623047" xlink:href="#DejaVuSans-48"/>
       <use x="127.246094" xlink:href="#DejaVuSans-37"/>
      </g>
     </g>
    </g>
    <g id="ytick_5">
     <g id="line2d_10">
      <g>
       <use style="stroke:#000000;stroke-width:0.8;" x="97.94" xlink:href="#m7ad4b55104" y="79.393441"/>
      </g>
     </g>
     <g id="text_11">
      <!-- 80% -->
      <g transform="translate(53.154844 85.852113)scale(0.17 -0.17)">
       <defs>
        <path d="M 31.78125 34.625 
Q 24.75 34.625 20.71875 30.859375 
Q 16.703125 27.09375 16.703125 20.515625 
Q 16.703125 13.921875 20.71875 10.15625 
Q 24.75 6.390625 31.78125 6.390625 
Q 38.8125 6.390625 42.859375 10.171875 
Q 46.921875 13.96875 46.921875 20.515625 
Q 46.921875 27.09375 42.890625 30.859375 
Q 38.875 34.625 31.78125 34.625 
z
M 21.921875 38.8125 
Q 15.578125 40.375 12.03125 44.71875 
Q 8.5 49.078125 8.5 55.328125 
Q 8.5 64.0625 14.71875 69.140625 
Q 20.953125 74.21875 31.78125 74.21875 
Q 42.671875 74.21875 48.875 69.140625 
Q 55.078125 64.0625 55.078125 55.328125 
Q 55.078125 49.078125 51.53125 44.71875 
Q 48 40.375 41.703125 38.8125 
Q 48.828125 37.15625 52.796875 32.3125 
Q 56.78125 27.484375 56.78125 20.515625 
Q 56.78125 9.90625 50.3125 4.234375 
Q 43.84375 -1.421875 31.78125 -1.421875 
Q 19.734375 -1.421875 13.25 4.234375 
Q 6.78125 9.90625 6.78125 20.515625 
Q 6.78125 27.484375 10.78125 32.3125 
Q 14.796875 37.15625 21.921875 38.8125 
z
M 18.3125 54.390625 
Q 18.3125 48.734375 21.84375 45.5625 
Q 25.390625 42.390625 31.78125 42.390625 
Q 38.140625 42.390625 41.71875 45.5625 
Q 45.3125 48.734375 45.3125 54.390625 
Q 45.3125 60.0625 41.71875 63.234375 
Q 38.140625 66.40625 31.78125 66.40625 
Q 25.390625 66.40625 21.84375 63.234375 
Q 18.3125 60.0625 18.3125 54.390625 
z
" id="DejaVuSans-56"/>
       </defs>
       <use xlink:href="#DejaVuSans-56"/>
       <use x="63.623047" xlink:href="#DejaVuSans-48"/>
       <use x="127.246094" xlink:href="#DejaVuSans-37"/>
      </g>
     </g>
    </g>
    <g id="ytick_6">
     <g id="line2d_11">
      <g>
       <use style="stroke:#000000;stroke-width:0.8;" x="97.94" xlink:href="#m7ad4b55104" y="28.856519"/>
      </g>
     </g>
     <g id="text_12">
      <!-- 100% -->
      <g transform="translate(42.338594 35.315191)scale(0.17 -0.17)">
       <use xlink:href="#DejaVuSans-49"/>
       <use x="63.623047" xlink:href="#DejaVuSans-48"/>
       <use x="127.246094" xlink:href="#DejaVuSans-48"/>
       <use x="190.869141" xlink:href="#DejaVuSans-37"/>
      </g>
     </g>
    </g>
    <g id="text_13">
     <!-- Non-default rate -->
     <g transform="translate(34.096031 239.646312)rotate(-90)scale(0.204 -0.204)">
      <defs>
       <path d="M 9.8125 72.90625 
L 23.09375 72.90625 
L 55.421875 11.921875 
L 55.421875 72.90625 
L 64.984375 72.90625 
L 64.984375 0 
L 51.703125 0 
L 19.390625 60.984375 
L 19.390625 0 
L 9.8125 0 
z
" id="DejaVuSans-78"/>
       <path d="M 54.890625 33.015625 
L 54.890625 0 
L 45.90625 0 
L 45.90625 32.71875 
Q 45.90625 40.484375 42.875 44.328125 
Q 39.84375 48.1875 33.796875 48.1875 
Q 26.515625 48.1875 22.3125 43.546875 
Q 18.109375 38.921875 18.109375 30.90625 
L 18.109375 0 
L 9.078125 0 
L 9.078125 54.6875 
L 18.109375 54.6875 
L 18.109375 46.1875 
Q 21.34375 51.125 25.703125 53.5625 
Q 30.078125 56 35.796875 56 
Q 45.21875 56 50.046875 50.171875 
Q 54.890625 44.34375 54.890625 33.015625 
z
" id="DejaVuSans-110"/>
       <path d="M 4.890625 31.390625 
L 31.203125 31.390625 
L 31.203125 23.390625 
L 4.890625 23.390625 
z
" id="DejaVuSans-45"/>
       <path d="M 37.109375 75.984375 
L 37.109375 68.5 
L 28.515625 68.5 
Q 23.6875 68.5 21.796875 66.546875 
Q 19.921875 64.59375 19.921875 59.515625 
L 19.921875 54.6875 
L 34.71875 54.6875 
L 34.71875 47.703125 
L 19.921875 47.703125 
L 19.921875 0 
L 10.890625 0 
L 10.890625 47.703125 
L 2.296875 47.703125 
L 2.296875 54.6875 
L 10.890625 54.6875 
L 10.890625 58.5 
Q 10.890625 67.625 15.140625 71.796875 
Q 19.390625 75.984375 28.609375 75.984375 
z
" id="DejaVuSans-102"/>
       <path d="M 34.28125 27.484375 
Q 23.390625 27.484375 19.1875 25 
Q 14.984375 22.515625 14.984375 16.5 
Q 14.984375 11.71875 18.140625 8.90625 
Q 21.296875 6.109375 26.703125 6.109375 
Q 34.1875 6.109375 38.703125 11.40625 
Q 43.21875 16.703125 43.21875 25.484375 
L 43.21875 27.484375 
z
M 52.203125 31.203125 
L 52.203125 0 
L 43.21875 0 
L 43.21875 8.296875 
Q 40.140625 3.328125 35.546875 0.953125 
Q 30.953125 -1.421875 24.3125 -1.421875 
Q 15.921875 -1.421875 10.953125 3.296875 
Q 6 8.015625 6 15.921875 
Q 6 25.140625 12.171875 29.828125 
Q 18.359375 34.515625 30.609375 34.515625 
L 43.21875 34.515625 
L 43.21875 35.40625 
Q 43.21875 41.609375 39.140625 45 
Q 35.0625 48.390625 27.6875 48.390625 
Q 23 48.390625 18.546875 47.265625 
Q 14.109375 46.140625 10.015625 43.890625 
L 10.015625 52.203125 
Q 14.9375 54.109375 19.578125 55.046875 
Q 24.21875 56 28.609375 56 
Q 40.484375 56 46.34375 49.84375 
Q 52.203125 43.703125 52.203125 31.203125 
z
" id="DejaVuSans-97"/>
       <path d="M 8.5 21.578125 
L 8.5 54.6875 
L 17.484375 54.6875 
L 17.484375 21.921875 
Q 17.484375 14.15625 20.5 10.265625 
Q 23.53125 6.390625 29.59375 6.390625 
Q 36.859375 6.390625 41.078125 11.03125 
Q 45.3125 15.671875 45.3125 23.6875 
L 45.3125 54.6875 
L 54.296875 54.6875 
L 54.296875 0 
L 45.3125 0 
L 45.3125 8.40625 
Q 42.046875 3.421875 37.71875 1 
Q 33.40625 -1.421875 27.6875 -1.421875 
Q 18.265625 -1.421875 13.375 4.4375 
Q 8.5 10.296875 8.5 21.578125 
z
M 31.109375 56 
z
" id="DejaVuSans-117"/>
       <path d="M 9.421875 75.984375 
L 18.40625 75.984375 
L 18.40625 0 
L 9.421875 0 
z
" id="DejaVuSans-108"/>
      </defs>
      <use xlink:href="#DejaVuSans-78"/>
      <use x="74.804688" xlink:href="#DejaVuSans-111"/>
      <use x="135.986328" xlink:href="#DejaVuSans-110"/>
      <use x="199.365234" xlink:href="#DejaVuSans-45"/>
      <use x="235.449219" xlink:href="#DejaVuSans-100"/>
      <use x="298.925781" xlink:href="#DejaVuSans-101"/>
      <use x="360.449219" xlink:href="#DejaVuSans-102"/>
      <use x="395.654297" xlink:href="#DejaVuSans-97"/>
      <use x="456.933594" xlink:href="#DejaVuSans-117"/>
      <use x="520.3125" xlink:href="#DejaVuSans-108"/>
      <use x="548.095703" xlink:href="#DejaVuSans-116"/>
      <use x="587.304688" xlink:href="#DejaVuSans-32"/>
      <use x="619.091797" xlink:href="#DejaVuSans-114"/>
      <use x="660.205078" xlink:href="#DejaVuSans-97"/>
      <use x="721.484375" xlink:href="#DejaVuSans-116"/>
      <use x="760.693359" xlink:href="#DejaVuSans-101"/>
     </g>
    </g>
   </g>
   <g id="LineCollection_1">
    <path clip-path="url(#p0ea06ed307)" d="M 97.94 70.970621 
L 340.429463 70.970621 
" style="fill:none;stroke:#000000;"/>
   </g>
   <g id="line2d_12">
    <path clip-path="url(#p0ea06ed307)" d="M 97.94 268.325727 
L 122.188946 253.644751 
L 146.437893 177.814098 
L 175.536628 107.138212 
L 194.935785 61.478102 
L 207.060258 56.828706 
L 216.759837 53.088973 
L 219.184731 52.15404 
L 243.433678 38.003702 
L 249.495914 38.787024 
L 267.682624 41.086454 
L 293.144018 34.289238 
L 312.543175 31.96454 
L 317.392964 31.509707 
L 330.729884 31.13068 
L 339.217015 30.877996 
L 340.429463 30.852727 
L 340.429463 30.852727 
" style="fill:none;stroke:#0000ff;stroke-linecap:square;stroke-width:3;"/>
   </g>
   <g id="line2d_13">
    <path clip-path="url(#p0ea06ed307)" d="M 97.94 280.707273 
L 112.489368 267.491867 
L 122.188946 258.698443 
L 146.437893 246.013675 
L 170.686839 156.335906 
L 194.935785 101.654956 
L 217.972284 67.871023 
L 219.184731 66.076962 
L 230.096757 63.019479 
L 242.22123 59.582968 
L 243.433678 59.254478 
L 264.045282 49.905147 
L 268.895071 47.833133 
L 284.656886 42.147729 
L 291.93157 39.51981 
L 316.180517 42.071924 
L 324.667648 38.281655 
L 340.429463 31.282291 
L 340.429463 31.282291 
" style="fill:none;stroke:#008000;stroke-dasharray:11.1,4.8;stroke-dashoffset:0;stroke-width:3;"/>
   </g>
   <g id="line2d_14">
    <path clip-path="url(#p0ea06ed307)" d="M 97.94 279.140628 
L 118.551604 255.236664 
L 123.401394 249.753408 
L 144.012998 228.123605 
L 146.437893 225.57149 
L 170.686839 126.114826 
L 194.935785 88.212134 
L 203.422916 79.216562 
L 219.184731 62.488841 
L 243.433678 51.294912 
L 270.107519 43.992327 
L 284.656886 39.34293 
L 291.93157 36.992963 
L 313.755622 34.162896 
L 318.605411 33.556453 
L 328.30499 32.44464 
L 339.217015 31.181217 
L 340.429463 31.054875 
L 340.429463 31.054875 
" style="fill:none;stroke:#00bfbf;stroke-dasharray:19.2,4.8,3,4.8;stroke-dashoffset:0;stroke-width:3;"/>
   </g>
   <g id="line2d_15">
    <path clip-path="url(#p0ea06ed307)" d="M 97.94 277.851937 
L 122.188946 248.009884 
L 146.437893 213.670045 
L 170.686839 119.418684 
L 182.811312 96.146431 
L 194.935785 72.874178 
L 215.547389 53.265852 
L 219.184731 49.829342 
L 225.246968 47.529912 
L 243.433678 40.65689 
L 270.107519 35.704272 
L 278.59465 34.718802 
L 291.93157 33.152157 
L 316.180517 32.570983 
L 340.429463 31.13068 
L 340.429463 31.13068 
" style="fill:none;stroke:#ff0000;stroke-dasharray:3,4.95;stroke-dashoffset:0;stroke-width:3;"/>
   </g>
   <g id="patch_3">
    <path d="M 97.94 293.2 
L 97.94 18.36 
" style="fill:none;stroke:#000000;stroke-linecap:square;stroke-linejoin:miter;stroke-width:0.8;"/>
   </g>
   <g id="patch_4">
    <path d="M 340.429463 293.2 
L 340.429463 18.36 
" style="fill:none;stroke:#000000;stroke-linecap:square;stroke-linejoin:miter;stroke-width:0.8;"/>
   </g>
   <g id="patch_5">
    <path d="M 97.94 293.2 
L 340.429463 293.2 
" style="fill:none;stroke:#000000;stroke-linecap:square;stroke-linejoin:miter;stroke-width:0.8;"/>
   </g>
   <g id="patch_6">
    <path d="M 97.94 18.36 
L 340.429463 18.36 
" style="fill:none;stroke:#000000;stroke-linecap:square;stroke-linejoin:miter;stroke-width:0.8;"/>
   </g>
   <g id="legend_1">
    <g id="patch_7">
     <path d="M 201.712119 284.7 
L 328.529463 284.7 
Q 331.929463 284.7 331.929463 281.3 
L 331.929463 183.18875 
Q 331.929463 179.78875 328.529463 179.78875 
L 201.712119 179.78875 
Q 198.312119 179.78875 198.312119 183.18875 
L 198.312119 281.3 
Q 198.312119 284.7 201.712119 284.7 
z
" style="fill:#ffffff;opacity:0.8;stroke:#cccccc;stroke-linejoin:miter;"/>
    </g>
    <g id="line2d_16">
     <path d="M 205.112119 193.556094 
L 239.112119 193.556094 
" style="fill:none;stroke:#0000ff;stroke-linecap:square;stroke-width:3;"/>
    </g>
    <g id="line2d_17"/>
    <g id="text_14">
     <!-- Asian -->
     <g transform="translate(252.712119 199.506094)scale(0.17 -0.17)">
      <defs>
       <path d="M 34.1875 63.1875 
L 20.796875 26.90625 
L 47.609375 26.90625 
z
M 28.609375 72.90625 
L 39.796875 72.90625 
L 67.578125 0 
L 57.328125 0 
L 50.6875 18.703125 
L 17.828125 18.703125 
L 11.1875 0 
L 0.78125 0 
z
" id="DejaVuSans-65"/>
      </defs>
      <use xlink:href="#DejaVuSans-65"/>
      <use x="68.408203" xlink:href="#DejaVuSans-115"/>
      <use x="120.507812" xlink:href="#DejaVuSans-105"/>
      <use x="148.291016" xlink:href="#DejaVuSans-97"/>
      <use x="209.570312" xlink:href="#DejaVuSans-110"/>
     </g>
    </g>
    <g id="line2d_18">
     <path d="M 205.112119 218.508906 
L 239.112119 218.508906 
" style="fill:none;stroke:#008000;stroke-dasharray:11.1,4.8;stroke-dashoffset:0;stroke-width:3;"/>
    </g>
    <g id="line2d_19"/>
    <g id="text_15">
     <!-- Black -->
     <g transform="translate(252.712119 224.458906)scale(0.17 -0.17)">
      <defs>
       <path d="M 19.671875 34.8125 
L 19.671875 8.109375 
L 35.5 8.109375 
Q 43.453125 8.109375 47.28125 11.40625 
Q 51.125 14.703125 51.125 21.484375 
Q 51.125 28.328125 47.28125 31.5625 
Q 43.453125 34.8125 35.5 34.8125 
z
M 19.671875 64.796875 
L 19.671875 42.828125 
L 34.28125 42.828125 
Q 41.5 42.828125 45.03125 45.53125 
Q 48.578125 48.25 48.578125 53.8125 
Q 48.578125 59.328125 45.03125 62.0625 
Q 41.5 64.796875 34.28125 64.796875 
z
M 9.8125 72.90625 
L 35.015625 72.90625 
Q 46.296875 72.90625 52.390625 68.21875 
Q 58.5 63.53125 58.5 54.890625 
Q 58.5 48.1875 55.375 44.234375 
Q 52.25 40.28125 46.1875 39.3125 
Q 53.46875 37.75 57.5 32.78125 
Q 61.53125 27.828125 61.53125 20.40625 
Q 61.53125 10.640625 54.890625 5.3125 
Q 48.25 0 35.984375 0 
L 9.8125 0 
z
" id="DejaVuSans-66"/>
       <path d="M 9.078125 75.984375 
L 18.109375 75.984375 
L 18.109375 31.109375 
L 44.921875 54.6875 
L 56.390625 54.6875 
L 27.390625 29.109375 
L 57.625 0 
L 45.90625 0 
L 18.109375 26.703125 
L 18.109375 0 
L 9.078125 0 
z
" id="DejaVuSans-107"/>
      </defs>
      <use xlink:href="#DejaVuSans-66"/>
      <use x="68.603516" xlink:href="#DejaVuSans-108"/>
      <use x="96.386719" xlink:href="#DejaVuSans-97"/>
      <use x="157.666016" xlink:href="#DejaVuSans-99"/>
      <use x="212.646484" xlink:href="#DejaVuSans-107"/>
     </g>
    </g>
    <g id="line2d_20">
     <path d="M 205.112119 243.461719 
L 239.112119 243.461719 
" style="fill:none;stroke:#00bfbf;stroke-dasharray:19.2,4.8,3,4.8;stroke-dashoffset:0;stroke-width:3;"/>
    </g>
    <g id="line2d_21"/>
    <g id="text_16">
     <!-- Hispanic -->
     <g transform="translate(252.712119 249.411719)scale(0.17 -0.17)">
      <defs>
       <path d="M 9.8125 72.90625 
L 19.671875 72.90625 
L 19.671875 43.015625 
L 55.515625 43.015625 
L 55.515625 72.90625 
L 65.375 72.90625 
L 65.375 0 
L 55.515625 0 
L 55.515625 34.71875 
L 19.671875 34.71875 
L 19.671875 0 
L 9.8125 0 
z
" id="DejaVuSans-72"/>
       <path d="M 18.109375 8.203125 
L 18.109375 -20.796875 
L 9.078125 -20.796875 
L 9.078125 54.6875 
L 18.109375 54.6875 
L 18.109375 46.390625 
Q 20.953125 51.265625 25.265625 53.625 
Q 29.59375 56 35.59375 56 
Q 45.5625 56 51.78125 48.09375 
Q 58.015625 40.1875 58.015625 27.296875 
Q 58.015625 14.40625 51.78125 6.484375 
Q 45.5625 -1.421875 35.59375 -1.421875 
Q 29.59375 -1.421875 25.265625 0.953125 
Q 20.953125 3.328125 18.109375 8.203125 
z
M 48.6875 27.296875 
Q 48.6875 37.203125 44.609375 42.84375 
Q 40.53125 48.484375 33.40625 48.484375 
Q 26.265625 48.484375 22.1875 42.84375 
Q 18.109375 37.203125 18.109375 27.296875 
Q 18.109375 17.390625 22.1875 11.75 
Q 26.265625 6.109375 33.40625 6.109375 
Q 40.53125 6.109375 44.609375 11.75 
Q 48.6875 17.390625 48.6875 27.296875 
z
" id="DejaVuSans-112"/>
      </defs>
      <use xlink:href="#DejaVuSans-72"/>
      <use x="75.195312" xlink:href="#DejaVuSans-105"/>
      <use x="102.978516" xlink:href="#DejaVuSans-115"/>
      <use x="155.078125" xlink:href="#DejaVuSans-112"/>
      <use x="218.554688" xlink:href="#DejaVuSans-97"/>
      <use x="279.833984" xlink:href="#DejaVuSans-110"/>
      <use x="343.212891" xlink:href="#DejaVuSans-105"/>
      <use x="370.996094" xlink:href="#DejaVuSans-99"/>
     </g>
    </g>
    <g id="line2d_22">
     <path d="M 205.112119 268.414531 
L 239.112119 268.414531 
" style="fill:none;stroke:#ff0000;stroke-dasharray:3,4.95;stroke-dashoffset:0;stroke-width:3;"/>
    </g>
    <g id="line2d_23"/>
    <g id="text_17">
     <!-- White -->
     <g transform="translate(252.712119 274.364531)scale(0.17 -0.17)">
      <defs>
       <path d="M 3.328125 72.90625 
L 13.28125 72.90625 
L 28.609375 11.28125 
L 43.890625 72.90625 
L 54.984375 72.90625 
L 70.3125 11.28125 
L 85.59375 72.90625 
L 95.609375 72.90625 
L 77.296875 0 
L 64.890625 0 
L 49.515625 63.28125 
L 33.984375 0 
L 21.578125 0 
z
" id="DejaVuSans-87"/>
       <path d="M 54.890625 33.015625 
L 54.890625 0 
L 45.90625 0 
L 45.90625 32.71875 
Q 45.90625 40.484375 42.875 44.328125 
Q 39.84375 48.1875 33.796875 48.1875 
Q 26.515625 48.1875 22.3125 43.546875 
Q 18.109375 38.921875 18.109375 30.90625 
L 18.109375 0 
L 9.078125 0 
L 9.078125 75.984375 
L 18.109375 75.984375 
L 18.109375 46.1875 
Q 21.34375 51.125 25.703125 53.5625 
Q 30.078125 56 35.796875 56 
Q 45.21875 56 50.046875 50.171875 
Q 54.890625 44.34375 54.890625 33.015625 
z
" id="DejaVuSans-104"/>
      </defs>
      <use xlink:href="#DejaVuSans-87"/>
      <use x="98.876953" xlink:href="#DejaVuSans-104"/>
      <use x="162.255859" xlink:href="#DejaVuSans-105"/>
      <use x="190.039062" xlink:href="#DejaVuSans-116"/>
      <use x="229.248047" xlink:href="#DejaVuSans-101"/>
     </g>
    </g>
   </g>
  </g>
  <g id="axes_2">
   <g id="patch_8">
    <path d="M 454.524463 293.2 
L 697.013926 293.2 
L 697.013926 18.36 
L 454.524463 18.36 
z
" style="fill:#ffffff;"/>
   </g>
   <g id="matplotlib.axis_3">
    <g id="xtick_6">
     <g id="line2d_24">
      <g>
       <use style="stroke:#000000;stroke-width:0.8;" x="465.546711" xlink:href="#m68aff17938" y="293.2"/>
      </g>
     </g>
     <g id="text_18">
      <!-- 0 -->
      <g transform="translate(460.138586 313.117344)scale(0.17 -0.17)">
       <use xlink:href="#DejaVuSans-48"/>
      </g>
     </g>
    </g>
    <g id="xtick_7">
     <g id="line2d_25">
      <g>
       <use style="stroke:#000000;stroke-width:0.8;" x="575.769194" xlink:href="#m68aff17938" y="293.2"/>
      </g>
     </g>
     <g id="text_19">
      <!-- 50 -->
      <g transform="translate(564.952944 313.117344)scale(0.17 -0.17)">
       <use xlink:href="#DejaVuSans-53"/>
       <use x="63.623047" xlink:href="#DejaVuSans-48"/>
      </g>
     </g>
    </g>
    <g id="xtick_8">
     <g id="line2d_26">
      <g>
       <use style="stroke:#000000;stroke-width:0.8;" x="685.991677" xlink:href="#m68aff17938" y="293.2"/>
      </g>
     </g>
     <g id="text_20">
      <!-- 100 -->
      <g transform="translate(669.767302 313.117344)scale(0.17 -0.17)">
       <use xlink:href="#DejaVuSans-49"/>
       <use x="63.623047" xlink:href="#DejaVuSans-48"/>
       <use x="127.246094" xlink:href="#DejaVuSans-48"/>
      </g>
     </g>
    </g>
    <g id="text_21">
     <!-- Within-group score percentile -->
     <g transform="translate(425.12635 336.153625)scale(0.204 -0.204)">
      <defs>
       <path d="M 45.40625 27.984375 
Q 45.40625 37.75 41.375 43.109375 
Q 37.359375 48.484375 30.078125 48.484375 
Q 22.859375 48.484375 18.828125 43.109375 
Q 14.796875 37.75 14.796875 27.984375 
Q 14.796875 18.265625 18.828125 12.890625 
Q 22.859375 7.515625 30.078125 7.515625 
Q 37.359375 7.515625 41.375 12.890625 
Q 45.40625 18.265625 45.40625 27.984375 
z
M 54.390625 6.78125 
Q 54.390625 -7.171875 48.1875 -13.984375 
Q 42 -20.796875 29.203125 -20.796875 
Q 24.46875 -20.796875 20.265625 -20.09375 
Q 16.0625 -19.390625 12.109375 -17.921875 
L 12.109375 -9.1875 
Q 16.0625 -11.328125 19.921875 -12.34375 
Q 23.78125 -13.375 27.78125 -13.375 
Q 36.625 -13.375 41.015625 -8.765625 
Q 45.40625 -4.15625 45.40625 5.171875 
L 45.40625 9.625 
Q 42.625 4.78125 38.28125 2.390625 
Q 33.9375 0 27.875 0 
Q 17.828125 0 11.671875 7.65625 
Q 5.515625 15.328125 5.515625 27.984375 
Q 5.515625 40.671875 11.671875 48.328125 
Q 17.828125 56 27.875 56 
Q 33.9375 56 38.28125 53.609375 
Q 42.625 51.21875 45.40625 46.390625 
L 45.40625 54.6875 
L 54.390625 54.6875 
z
" id="DejaVuSans-103"/>
      </defs>
      <use xlink:href="#DejaVuSans-87"/>
      <use x="96.626953" xlink:href="#DejaVuSans-105"/>
      <use x="124.410156" xlink:href="#DejaVuSans-116"/>
      <use x="163.619141" xlink:href="#DejaVuSans-104"/>
      <use x="226.998047" xlink:href="#DejaVuSans-105"/>
      <use x="254.78125" xlink:href="#DejaVuSans-110"/>
      <use x="318.160156" xlink:href="#DejaVuSans-45"/>
      <use x="354.244141" xlink:href="#DejaVuSans-103"/>
      <use x="417.720703" xlink:href="#DejaVuSans-114"/>
      <use x="456.583984" xlink:href="#DejaVuSans-111"/>
      <use x="517.765625" xlink:href="#DejaVuSans-117"/>
      <use x="581.144531" xlink:href="#DejaVuSans-112"/>
      <use x="644.621094" xlink:href="#DejaVuSans-32"/>
      <use x="676.408203" xlink:href="#DejaVuSans-115"/>
      <use x="728.507812" xlink:href="#DejaVuSans-99"/>
      <use x="783.488281" xlink:href="#DejaVuSans-111"/>
      <use x="844.669922" xlink:href="#DejaVuSans-114"/>
      <use x="883.533203" xlink:href="#DejaVuSans-101"/>
      <use x="945.056641" xlink:href="#DejaVuSans-32"/>
      <use x="976.84375" xlink:href="#DejaVuSans-112"/>
      <use x="1040.320312" xlink:href="#DejaVuSans-101"/>
      <use x="1101.84375" xlink:href="#DejaVuSans-114"/>
      <use x="1140.707031" xlink:href="#DejaVuSans-99"/>
      <use x="1195.6875" xlink:href="#DejaVuSans-101"/>
      <use x="1257.210938" xlink:href="#DejaVuSans-110"/>
      <use x="1320.589844" xlink:href="#DejaVuSans-116"/>
      <use x="1359.798828" xlink:href="#DejaVuSans-105"/>
      <use x="1387.582031" xlink:href="#DejaVuSans-108"/>
      <use x="1415.365234" xlink:href="#DejaVuSans-101"/>
     </g>
    </g>
   </g>
   <g id="matplotlib.axis_4">
    <g id="ytick_7">
     <g id="line2d_27">
      <g>
       <use style="stroke:#000000;stroke-width:0.8;" x="454.524463" xlink:href="#m7ad4b55104" y="281.541132"/>
      </g>
     </g>
     <g id="text_22">
      <!-- 0% -->
      <g transform="translate(420.555557 287.999804)scale(0.17 -0.17)">
       <use xlink:href="#DejaVuSans-48"/>
       <use x="63.623047" xlink:href="#DejaVuSans-37"/>
      </g>
     </g>
    </g>
    <g id="ytick_8">
     <g id="line2d_28">
      <g>
       <use style="stroke:#000000;stroke-width:0.8;" x="454.524463" xlink:href="#m7ad4b55104" y="231.004209"/>
      </g>
     </g>
     <g id="text_23">
      <!-- 20% -->
      <g transform="translate(409.739307 237.462881)scale(0.17 -0.17)">
       <use xlink:href="#DejaVuSans-50"/>
       <use x="63.623047" xlink:href="#DejaVuSans-48"/>
       <use x="127.246094" xlink:href="#DejaVuSans-37"/>
      </g>
     </g>
    </g>
    <g id="ytick_9">
     <g id="line2d_29">
      <g>
       <use style="stroke:#000000;stroke-width:0.8;" x="454.524463" xlink:href="#m7ad4b55104" y="180.467287"/>
      </g>
     </g>
     <g id="text_24">
      <!-- 40% -->
      <g transform="translate(409.739307 186.925959)scale(0.17 -0.17)">
       <use xlink:href="#DejaVuSans-52"/>
       <use x="63.623047" xlink:href="#DejaVuSans-48"/>
       <use x="127.246094" xlink:href="#DejaVuSans-37"/>
      </g>
     </g>
    </g>
    <g id="ytick_10">
     <g id="line2d_30">
      <g>
       <use style="stroke:#000000;stroke-width:0.8;" x="454.524463" xlink:href="#m7ad4b55104" y="129.930364"/>
      </g>
     </g>
     <g id="text_25">
      <!-- 60% -->
      <g transform="translate(409.739307 136.389036)scale(0.17 -0.17)">
       <use xlink:href="#DejaVuSans-54"/>
       <use x="63.623047" xlink:href="#DejaVuSans-48"/>
       <use x="127.246094" xlink:href="#DejaVuSans-37"/>
      </g>
     </g>
    </g>
    <g id="ytick_11">
     <g id="line2d_31">
      <g>
       <use style="stroke:#000000;stroke-width:0.8;" x="454.524463" xlink:href="#m7ad4b55104" y="79.393441"/>
      </g>
     </g>
     <g id="text_26">
      <!-- 80% -->
      <g transform="translate(409.739307 85.852113)scale(0.17 -0.17)">
       <use xlink:href="#DejaVuSans-56"/>
       <use x="63.623047" xlink:href="#DejaVuSans-48"/>
       <use x="127.246094" xlink:href="#DejaVuSans-37"/>
      </g>
     </g>
    </g>
    <g id="ytick_12">
     <g id="line2d_32">
      <g>
       <use style="stroke:#000000;stroke-width:0.8;" x="454.524463" xlink:href="#m7ad4b55104" y="28.856519"/>
      </g>
     </g>
     <g id="text_27">
      <!-- 100% -->
      <g transform="translate(398.923057 35.315191)scale(0.17 -0.17)">
       <use xlink:href="#DejaVuSans-49"/>
       <use x="63.623047" xlink:href="#DejaVuSans-48"/>
       <use x="127.246094" xlink:href="#DejaVuSans-48"/>
       <use x="190.869141" xlink:href="#DejaVuSans-37"/>
      </g>
     </g>
    </g>
    <g id="text_28">
     <!-- Non-default rate -->
     <g transform="translate(390.680494 239.646312)rotate(-90)scale(0.204 -0.204)">
      <use xlink:href="#DejaVuSans-78"/>
      <use x="74.804688" xlink:href="#DejaVuSans-111"/>
      <use x="135.986328" xlink:href="#DejaVuSans-110"/>
      <use x="199.365234" xlink:href="#DejaVuSans-45"/>
      <use x="235.449219" xlink:href="#DejaVuSans-100"/>
      <use x="298.925781" xlink:href="#DejaVuSans-101"/>
      <use x="360.449219" xlink:href="#DejaVuSans-102"/>
      <use x="395.654297" xlink:href="#DejaVuSans-97"/>
      <use x="456.933594" xlink:href="#DejaVuSans-117"/>
      <use x="520.3125" xlink:href="#DejaVuSans-108"/>
      <use x="548.095703" xlink:href="#DejaVuSans-116"/>
      <use x="587.304688" xlink:href="#DejaVuSans-32"/>
      <use x="619.091797" xlink:href="#DejaVuSans-114"/>
      <use x="660.205078" xlink:href="#DejaVuSans-97"/>
      <use x="721.484375" xlink:href="#DejaVuSans-116"/>
      <use x="760.693359" xlink:href="#DejaVuSans-101"/>
     </g>
    </g>
   </g>
   <g id="LineCollection_2">
    <path clip-path="url(#p6c1a0f7302)" d="M 465.546711 70.970621 
L 685.991677 70.970621 
" style="fill:none;stroke:#000000;"/>
   </g>
   <g id="line2d_33">
    <path clip-path="url(#p6c1a0f7302)" d="M 465.546711 268.325727 
L 465.83329 267.592941 
L 467.486627 266.860156 
L 467.905472 266.127371 
L 469.580854 263.929014 
L 470.3965 263.196229 
L 471.013746 262.463444 
L 471.234191 261.70539 
L 472.380505 260.972604 
L 474.144065 259.507034 
L 474.540866 258.774248 
L 476.613048 256.575892 
L 476.877582 255.843107 
L 477.40665 255.110321 
L 477.737318 254.377536 
L 478.200252 253.644751 
L 478.420697 249.854481 
L 479.324522 246.064212 
L 479.787456 242.273943 
L 480.867636 238.483674 
L 483.116175 227.087598 
L 484.064088 223.297329 
L 484.681334 219.507059 
L 486.37876 211.926521 
L 488.296632 200.555713 
L 488.759566 196.765444 
L 489.707479 192.975175 
L 490.038147 189.184906 
L 490.919927 185.394637 
L 491.559217 181.604367 
L 492.815753 177.814098 
L 494.248646 171.87601 
L 494.733625 168.9196 
L 495.527227 165.96319 
L 496.827852 160.025102 
L 497.312831 157.068692 
L 498.503234 154.112282 
L 499.054346 151.155872 
L 499.737725 148.174193 
L 500.20066 145.217783 
L 503.2428 136.323285 
L 503.904135 133.366875 
L 505.00636 130.410465 
L 505.822006 127.454055 
L 507.276943 124.472376 
L 507.783967 121.515966 
L 509.040503 118.559556 
L 510.032505 115.70422 
L 511.840154 112.848884 
L 513.625758 107.138212 
L 516.072697 101.42754 
L 516.954477 98.572204 
L 518.343281 95.716867 
L 519.203016 92.861531 
L 520.944531 90.006195 
L 521.716089 87.176128 
L 523.215114 84.320791 
L 523.964627 81.465455 
L 525.926587 78.610119 
L 526.587922 75.754783 
L 528.461704 72.899447 
L 529.056906 70.044111 
L 530.930688 67.188775 
L 531.393623 64.333439 
L 532.495847 61.478102 
L 533.553983 61.02327 
L 535.075053 60.543169 
L 535.780477 60.088337 
L 537.235414 59.608236 
L 538.183327 59.153404 
L 540.674356 58.218471 
L 542.371782 57.763639 
L 549.139442 55.413672 
L 551.079358 54.958839 
L 552.247716 54.504007 
L 554.033321 54.023906 
L 556.171637 53.088973 
L 557.36204 52.634141 
L 558.971288 52.15404 
L 559.853068 51.446523 
L 561.72685 50.739006 
L 562.80703 50.031489 
L 564.724901 49.323972 
L 566.135749 48.616456 
L 571.845274 46.493905 
L 573.013632 45.786388 
L 575.218082 45.078871 
L 576.121906 44.371354 
L 580.861473 42.248803 
L 581.963698 41.541286 
L 587.783445 38.711219 
L 589.877672 38.003702 
L 593.515014 38.483803 
L 600.172452 39.090246 
L 604.471129 39.545078 
L 606.918068 39.873568 
L 611.767857 40.480011 
L 612.583504 40.631622 
L 616.595602 41.086454 
L 619.152764 40.100984 
L 621.136768 39.772494 
L 623.671885 39.090246 
L 624.289131 38.761756 
L 625.347267 38.433266 
L 628.191007 37.751017 
L 631.431548 36.765547 
L 634.87049 36.437057 
L 639.764368 34.769339 
L 640.976815 34.41558 
L 656.716586 32.545714 
L 657.377921 32.419372 
L 663.55038 31.686586 
L 664.343982 31.534976 
L 685.991677 30.852727 
L 685.991677 30.852727 
" style="fill:none;stroke:#0000ff;stroke-linecap:square;stroke-width:3;"/>
   </g>
   <g id="line2d_34">
    <path clip-path="url(#p6c1a0f7302)" d="M 465.701023 280.707273 
L 468.170006 279.59546 
L 477.296428 278.508917 
L 479.8095 277.397104 
L 485.981959 275.198748 
L 490.236547 274.112204 
L 497.687587 271.88858 
L 498.966168 270.802036 
L 504.609559 269.690224 
L 509.216859 268.60368 
L 513.427358 267.491867 
L 516.094742 266.405324 
L 519.974573 265.293511 
L 521.782222 264.206967 
L 524.95663 263.095155 
L 526.279299 262.008611 
L 528.571927 260.896799 
L 530.313442 259.784987 
L 534.237363 258.066731 
L 539.021018 256.803308 
L 542.944939 256.171597 
L 545.06121 255.514617 
L 549.778733 254.251194 
L 553.261763 253.619482 
L 555.378035 252.987771 
L 558.287908 252.356059 
L 560.139646 251.724348 
L 562.630674 251.092636 
L 570.037625 248.540521 
L 574.204035 246.645387 
L 582.492766 246.013675 
L 584.675171 241.541158 
L 587.32051 237.043372 
L 588.775447 232.570854 
L 590.671274 228.073068 
L 592.015988 223.60055 
L 593.845681 219.102764 
L 595.300618 214.630246 
L 597.813691 210.157729 
L 599.18045 205.659943 
L 601.010143 201.187425 
L 602.398946 196.689639 
L 604.272728 192.217121 
L 605.617443 187.719335 
L 607.491225 183.246817 
L 608.835939 178.7743 
L 610.709721 174.276514 
L 611.944213 169.803996 
L 613.862084 165.30621 
L 614.677731 160.833692 
L 617.32307 153.606912 
L 618.954363 150.877919 
L 619.814098 148.148925 
L 621.180857 145.394662 
L 622.194904 142.665669 
L 625.744068 134.478687 
L 626.802204 131.724425 
L 628.565764 128.995431 
L 629.116876 126.266437 
L 630.505679 123.537443 
L 631.122925 120.783181 
L 632.798307 118.054187 
L 633.437597 115.325193 
L 635.024801 112.5962 
L 635.708181 109.867206 
L 636.876539 107.112944 
L 637.383562 104.38395 
L 638.199209 101.654956 
L 639.147122 99.886164 
L 640.31548 98.092103 
L 640.778415 96.323311 
L 642.034951 94.52925 
L 642.850597 92.760457 
L 643.996911 90.991665 
L 644.592113 89.197604 
L 645.782515 87.428812 
L 648.185366 82.097167 
L 649.023056 80.303106 
L 649.441902 78.534314 
L 650.433904 76.765521 
L 650.896839 74.971461 
L 651.73453 73.202668 
L 652.175419 71.408608 
L 653.365822 67.871023 
L 654.159424 66.076962 
L 654.57827 65.748472 
L 655.65845 65.066224 
L 656.650452 64.383975 
L 658.568324 63.347969 
L 658.876946 63.019479 
L 659.670548 62.66572 
L 662.293843 60.618975 
L 662.646555 60.265216 
L 663.241757 59.936726 
L 663.616513 59.582968 
L 664.299893 59.254478 
L 664.564427 58.698572 
L 667.209766 55.413672 
L 667.849057 54.301859 
L 668.973326 52.103503 
L 669.149682 51.572866 
L 669.722839 51.016959 
L 670.097595 49.905147 
L 670.472352 49.374509 
L 670.979375 48.262697 
L 671.530488 47.403569 
L 671.750932 46.948737 
L 672.125689 46.519173 
L 673.624715 44.320817 
L 674.087649 43.891253 
L 674.92534 42.577293 
L 675.542586 42.147729 
L 676.953434 39.51981 
L 678.033614 39.898836 
L 678.739038 40.277863 
L 681.340289 41.414944 
L 681.428467 41.541286 
L 682.111846 41.945582 
L 682.266157 42.071924 
L 682.552736 40.454743 
L 682.839314 39.898836 
L 683.45656 38.281655 
L 684.250162 36.689742 
L 684.33834 36.133836 
L 684.624919 35.603198 
L 684.911497 34.516654 
L 685.22012 33.986016 
L 685.749188 33.455379 
L 685.969633 32.368835 
L 685.991677 31.282291 
L 685.991677 31.282291 
" style="fill:none;stroke:#008000;stroke-dasharray:11.1,4.8;stroke-dashoffset:0;stroke-width:3;"/>
   </g>
   <g id="line2d_35">
    <path clip-path="url(#p6c1a0f7302)" d="M 465.568756 279.140628 
L 466.582802 277.725594 
L 470.440589 276.31056 
L 471.586903 274.920795 
L 473.24024 273.505761 
L 474.452688 272.090727 
L 476.613048 270.700962 
L 478.266386 269.285928 
L 480.096079 267.896163 
L 480.801503 266.481129 
L 483.667287 265.066095 
L 486.070137 263.67633 
L 487.988009 262.261296 
L 489.354767 260.871531 
L 491.86784 259.456497 
L 492.837798 258.041463 
L 494.601358 256.651698 
L 495.527227 255.236664 
L 497.841899 252.431865 
L 500.134526 249.753408 
L 501.655597 248.489985 
L 502.845999 247.201293 
L 505.292939 245.93787 
L 506.505386 244.674447 
L 508.224857 243.385755 
L 509.525482 242.122332 
L 512.060599 240.833641 
L 513.515536 239.570218 
L 515.411362 238.306795 
L 516.711988 237.018103 
L 518.497592 235.75468 
L 519.974573 234.491257 
L 521.738133 233.202565 
L 522.796269 231.939142 
L 524.229161 230.675719 
L 525.287297 229.387028 
L 526.786323 228.123605 
L 527.734236 226.834913 
L 532.36358 225.57149 
L 533.730339 220.593603 
L 535.868655 215.615716 
L 536.77248 210.663098 
L 538.315594 205.685211 
L 539.505997 200.707324 
L 541.027068 195.729437 
L 542.834716 190.776819 
L 545.325744 185.798932 
L 546.670459 180.821045 
L 548.610374 175.843158 
L 549.690555 170.865271 
L 551.410025 165.912653 
L 552.95314 160.934766 
L 555.047367 155.956879 
L 556.546393 150.978992 
L 558.596531 146.001105 
L 560.183735 141.048487 
L 562.564541 136.0706 
L 563.732899 131.092713 
L 565.45237 126.114826 
L 566.378239 124.219692 
L 568.472466 122.324557 
L 569.684913 120.429423 
L 571.470517 118.534288 
L 572.991588 116.639153 
L 575.681016 112.848884 
L 578.59089 109.058615 
L 580.618983 107.16348 
L 581.588941 105.268346 
L 583.63908 103.373211 
L 584.498815 101.478077 
L 586.879621 99.582942 
L 587.629133 97.687807 
L 589.855628 95.792673 
L 590.561051 93.897538 
L 592.412789 92.002404 
L 593.030035 90.107269 
L 594.220438 88.212134 
L 595.146307 86.948711 
L 596.645333 85.66002 
L 597.438934 84.371328 
L 599.136361 83.082637 
L 600.150407 81.793945 
L 601.715567 80.505254 
L 602.641436 79.216562 
L 604.493173 77.927871 
L 605.705621 76.639179 
L 607.116468 75.350488 
L 609.651586 72.773105 
L 610.401098 71.484413 
L 612.07648 70.195722 
L 612.825993 68.90703 
L 614.347063 67.618338 
L 615.16271 66.354915 
L 617.168759 63.777532 
L 619.152764 61.932935 
L 620.431344 61.35176 
L 621.313124 60.795854 
L 624.884333 59.128135 
L 625.832246 58.572229 
L 627.110827 58.016323 
L 627.794206 57.460417 
L 629.116876 56.879242 
L 629.932522 56.323336 
L 631.189059 55.76743 
L 632.048794 55.211524 
L 633.371464 54.655618 
L 634.098932 54.099712 
L 635.333424 53.543806 
L 638.022853 51.850819 
L 641.505883 50.334711 
L 643.291487 49.677731 
L 643.886689 49.349241 
L 645.870693 48.692261 
L 646.399761 48.363771 
L 647.347675 48.035281 
L 647.744476 47.706791 
L 649.309635 47.049811 
L 649.750525 46.746589 
L 650.874794 46.418099 
L 651.712485 45.761119 
L 652.682443 45.432629 
L 654.468047 44.396623 
L 655.460049 43.6133 
L 656.430007 43.234273 
L 658.215612 41.667629 
L 660.001216 40.884306 
L 661.610464 39.721957 
L 663.065401 39.34293 
L 666.327986 36.992963 
L 671.706844 35.57793 
L 672.0816 35.426319 
L 674.131738 34.946218 
L 674.396272 34.794607 
L 675.983476 34.314506 
L 676.24801 34.162896 
L 677.702947 33.708063 
L 678.187926 33.43011 
L 684.316296 31.737123 
L 685.727143 31.45917 
L 685.991677 31.181217 
L 685.991677 31.054875 
L 685.991677 31.054875 
" style="fill:none;stroke:#00bfbf;stroke-dasharray:19.2,4.8,3,4.8;stroke-dashoffset:0;stroke-width:3;"/>
   </g>
   <g id="line2d_36">
    <path clip-path="url(#p6c1a0f7302)" d="M 465.568756 277.851937 
L 466.119868 276.361097 
L 468.103873 274.870258 
L 468.699074 273.379419 
L 469.514721 271.88858 
L 470.154011 270.372472 
L 472.071882 267.390794 
L 473.019795 265.899954 
L 473.350463 264.409115 
L 474.783355 262.918276 
L 477.186205 259.936598 
L 477.803451 258.445758 
L 479.015899 256.954919 
L 479.522922 255.46408 
L 480.559013 253.973241 
L 481.021948 252.482401 
L 481.727372 250.991562 
L 482.300529 249.500723 
L 483.072086 248.009884 
L 483.623198 246.291628 
L 484.549067 244.573373 
L 485.254491 242.855118 
L 486.62125 241.136862 
L 487.414852 239.418607 
L 488.472988 237.700352 
L 489.266589 235.982096 
L 490.699482 234.289109 
L 491.448995 232.570854 
L 492.639397 230.852599 
L 493.344821 229.134343 
L 494.402957 227.416088 
L 495.15247 225.697832 
L 496.056294 223.979577 
L 496.695585 222.261322 
L 497.643498 220.543066 
L 498.260744 218.824811 
L 499.142524 217.106556 
L 499.715681 215.3883 
L 502.008309 213.670045 
L 502.757821 208.944843 
L 503.838002 204.244909 
L 504.433203 199.519707 
L 505.381117 194.819773 
L 506.064496 190.09457 
L 507.717833 180.669434 
L 509.040503 175.969501 
L 509.834105 171.244298 
L 510.826107 166.544365 
L 511.487442 161.819162 
L 513.317135 152.394026 
L 514.639805 147.694092 
L 515.411362 142.96889 
L 516.667899 138.268956 
L 517.461501 133.543754 
L 519.070749 128.84382 
L 520.018662 124.118618 
L 521.187021 119.418684 
L 521.958578 117.068717 
L 523.347381 114.744019 
L 524.140983 112.41932 
L 525.221163 110.094622 
L 526.124988 107.769924 
L 527.271302 105.445225 
L 528.153082 103.120527 
L 530.423665 98.47113 
L 532.032913 96.146431 
L 532.60607 93.821733 
L 534.259407 91.497034 
L 534.986875 89.147068 
L 536.684302 86.822369 
L 537.433815 84.497671 
L 539.087152 82.172972 
L 539.748487 79.848274 
L 541.203424 77.523575 
L 541.732491 75.198877 
L 542.90085 72.874178 
L 543.760585 71.711829 
L 545.039166 70.574748 
L 545.634367 69.412399 
L 547.045215 68.25005 
L 547.882906 67.112969 
L 549.249665 65.95062 
L 550.1094 64.813539 
L 552.710651 62.488841 
L 554.959189 60.189411 
L 556.215726 59.027062 
L 557.031372 57.889981 
L 558.706754 56.727632 
L 559.434222 55.590551 
L 561.153693 54.428202 
L 562.035473 53.265852 
L 564.1297 50.966422 
L 566.135749 49.349241 
L 569.596735 47.984744 
L 570.478515 47.529912 
L 574.204035 46.165415 
L 574.86537 45.685314 
L 576.320307 45.230482 
L 577.135953 44.775649 
L 578.436578 44.320817 
L 579.252225 43.865985 
L 580.596939 43.411153 
L 581.390541 42.95632 
L 582.7573 42.501488 
L 583.683169 42.046656 
L 588.20229 40.429474 
L 600.591297 37.852091 
L 602.02419 37.397259 
L 603.567304 37.169843 
L 604.757707 36.689742 
L 607.292824 36.23491 
L 609.166607 35.855883 
L 610.643588 35.57793 
L 614.170707 35.148366 
L 615.956312 34.845144 
L 620.188855 34.440849 
L 622.37126 34.137627 
L 624.77411 34.011285 
L 631.629949 33.152157 
L 659.626459 32.570983 
L 667.959279 32.065613 
L 680.899399 31.484439 
L 685.793277 31.257023 
L 685.991677 31.13068 
L 685.991677 31.13068 
" style="fill:none;stroke:#ff0000;stroke-dasharray:3,4.95;stroke-dashoffset:0;stroke-width:3;"/>
   </g>
   <g id="patch_9">
    <path d="M 454.524463 293.2 
L 454.524463 18.36 
" style="fill:none;stroke:#000000;stroke-linecap:square;stroke-linejoin:miter;stroke-width:0.8;"/>
   </g>
   <g id="patch_10">
    <path d="M 697.013926 293.2 
L 697.013926 18.36 
" style="fill:none;stroke:#000000;stroke-linecap:square;stroke-linejoin:miter;stroke-width:0.8;"/>
   </g>
   <g id="patch_11">
    <path d="M 454.524463 293.2 
L 697.013926 293.2 
" style="fill:none;stroke:#000000;stroke-linecap:square;stroke-linejoin:miter;stroke-width:0.8;"/>
   </g>
   <g id="patch_12">
    <path d="M 454.524463 18.36 
L 697.013926 18.36 
" style="fill:none;stroke:#000000;stroke-linecap:square;stroke-linejoin:miter;stroke-width:0.8;"/>
   </g>
   <g id="legend_2">
    <g id="patch_13">
     <path d="M 558.296582 284.7 
L 685.113926 284.7 
Q 688.513926 284.7 688.513926 281.3 
L 688.513926 183.18875 
Q 688.513926 179.78875 685.113926 179.78875 
L 558.296582 179.78875 
Q 554.896582 179.78875 554.896582 183.18875 
L 554.896582 281.3 
Q 554.896582 284.7 558.296582 284.7 
z
" style="fill:#ffffff;opacity:0.8;stroke:#cccccc;stroke-linejoin:miter;"/>
    </g>
    <g id="line2d_37">
     <path d="M 561.696582 193.556094 
L 595.696582 193.556094 
" style="fill:none;stroke:#0000ff;stroke-linecap:square;stroke-width:3;"/>
    </g>
    <g id="line2d_38"/>
    <g id="text_29">
     <!-- Asian -->
     <g transform="translate(609.296582 199.506094)scale(0.17 -0.17)">
      <use xlink:href="#DejaVuSans-65"/>
      <use x="68.408203" xlink:href="#DejaVuSans-115"/>
      <use x="120.507812" xlink:href="#DejaVuSans-105"/>
      <use x="148.291016" xlink:href="#DejaVuSans-97"/>
      <use x="209.570312" xlink:href="#DejaVuSans-110"/>
     </g>
    </g>
    <g id="line2d_39">
     <path d="M 561.696582 218.508906 
L 595.696582 218.508906 
" style="fill:none;stroke:#008000;stroke-dasharray:11.1,4.8;stroke-dashoffset:0;stroke-width:3;"/>
    </g>
    <g id="line2d_40"/>
    <g id="text_30">
     <!-- Black -->
     <g transform="translate(609.296582 224.458906)scale(0.17 -0.17)">
      <use xlink:href="#DejaVuSans-66"/>
      <use x="68.603516" xlink:href="#DejaVuSans-108"/>
      <use x="96.386719" xlink:href="#DejaVuSans-97"/>
      <use x="157.666016" xlink:href="#DejaVuSans-99"/>
      <use x="212.646484" xlink:href="#DejaVuSans-107"/>
     </g>
    </g>
    <g id="line2d_41">
     <path d="M 561.696582 243.461719 
L 595.696582 243.461719 
" style="fill:none;stroke:#00bfbf;stroke-dasharray:19.2,4.8,3,4.8;stroke-dashoffset:0;stroke-width:3;"/>
    </g>
    <g id="line2d_42"/>
    <g id="text_31">
     <!-- Hispanic -->
     <g transform="translate(609.296582 249.411719)scale(0.17 -0.17)">
      <use xlink:href="#DejaVuSans-72"/>
      <use x="75.195312" xlink:href="#DejaVuSans-105"/>
      <use x="102.978516" xlink:href="#DejaVuSans-115"/>
      <use x="155.078125" xlink:href="#DejaVuSans-112"/>
      <use x="218.554688" xlink:href="#DejaVuSans-97"/>
      <use x="279.833984" xlink:href="#DejaVuSans-110"/>
      <use x="343.212891" xlink:href="#DejaVuSans-105"/>
      <use x="370.996094" xlink:href="#DejaVuSans-99"/>
     </g>
    </g>
    <g id="line2d_43">
     <path d="M 561.696582 268.414531 
L 595.696582 268.414531 
" style="fill:none;stroke:#ff0000;stroke-dasharray:3,4.95;stroke-dashoffset:0;stroke-width:3;"/>
    </g>
    <g id="line2d_44"/>
    <g id="text_32">
     <!-- White -->
     <g transform="translate(609.296582 274.364531)scale(0.17 -0.17)">
      <use xlink:href="#DejaVuSans-87"/>
      <use x="98.876953" xlink:href="#DejaVuSans-104"/>
      <use x="162.255859" xlink:href="#DejaVuSans-105"/>
      <use x="190.039062" xlink:href="#DejaVuSans-116"/>
      <use x="229.248047" xlink:href="#DejaVuSans-101"/>
     </g>
    </g>
   </g>
  </g>
 </g>
 <defs>
  <clipPath id="p0ea06ed307">
   <rect height="274.84" width="242.489463" x="97.94" y="18.36"/>
  </clipPath>
  <clipPath id="p6c1a0f7302">
   <rect height="274.84" width="242.489463" x="454.524463" y="18.36"/>
  </clipPath>
 </defs>
</svg>
