<?xml version="1.0" encoding="utf-8" standalone="no"?>
<!DOCTYPE svg PUBLIC "-//W3C//DTD SVG 1.1//EN"
  "http://www.w3.org/Graphics/SVG/1.1/DTD/svg11.dtd">
<!-- Created with matplotlib (https://matplotlib.org/) -->
<svg height="360pt" version="1.1" viewBox="0 0 432 360" width="432pt" xmlns="http://www.w3.org/2000/svg" xmlns:xlink="http://www.w3.org/1999/xlink">
 <metadata>
  <rdf:RDF xmlns:cc="http://creativecommons.org/ns#" xmlns:dc="http://purl.org/dc/elements/1.1/" xmlns:rdf="http://www.w3.org/1999/02/22-rdf-syntax-ns#">
   <cc:Work>
    <dc:type rdf:resource="http://purl.org/dc/dcmitype/StillImage"/>
    <dc:date>2021-02-06T00:54:17.424554</dc:date>
    <dc:format>image/svg+xml</dc:format>
    <dc:creator>
     <cc:Agent>
      <dc:title>Matplotlib v3.3.2, https://matplotlib.org/</dc:title>
     </cc:Agent>
    </dc:creator>
   </cc:Work>
  </rdf:RDF>
 </metadata>
 <defs>
  <style type="text/css">*{stroke-linecap:butt;stroke-linejoin:round;}</style>
 </defs>
 <g id="figure_1">
  <g id="patch_1">
   <path d="M 0 360 
L 432 360 
L 432 0 
L 0 0 
z
" style="fill:#ffffff;"/>
  </g>
  <g id="axes_1">
   <g id="patch_2">
    <path d="M 76.52 293.2 
L 412.703182 293.2 
L 412.703182 40.2 
L 76.52 40.2 
z
" style="fill:#ffffff;"/>
   </g>
   <g id="matplotlib.axis_1">
    <g id="xtick_1">
     <g id="line2d_1">
      <defs>
       <path d="M 0 0 
L 0 3.5 
" id="m8ebd8c1d8a" style="stroke:#000000;stroke-width:0.8;"/>
      </defs>
      <g>
       <use style="stroke:#000000;stroke-width:0.8;" x="91.801054" xlink:href="#m8ebd8c1d8a" y="293.2"/>
      </g>
     </g>
     <g id="text_1">
      <!-- 0 -->
      <g transform="translate(86.392929 313.117344)scale(0.17 -0.17)">
       <defs>
        <path d="M 31.78125 66.40625 
Q 24.171875 66.40625 20.328125 58.90625 
Q 16.5 51.421875 16.5 36.375 
Q 16.5 21.390625 20.328125 13.890625 
Q 24.171875 6.390625 31.78125 6.390625 
Q 39.453125 6.390625 43.28125 13.890625 
Q 47.125 21.390625 47.125 36.375 
Q 47.125 51.421875 43.28125 58.90625 
Q 39.453125 66.40625 31.78125 66.40625 
z
M 31.78125 74.21875 
Q 44.046875 74.21875 50.515625 64.515625 
Q 56.984375 54.828125 56.984375 36.375 
Q 56.984375 17.96875 50.515625 8.265625 
Q 44.046875 -1.421875 31.78125 -1.421875 
Q 19.53125 -1.421875 13.0625 8.265625 
Q 6.59375 17.96875 6.59375 36.375 
Q 6.59375 54.828125 13.0625 64.515625 
Q 19.53125 74.21875 31.78125 74.21875 
z
" id="DejaVuSans-48"/>
       </defs>
       <use xlink:href="#DejaVuSans-48"/>
      </g>
     </g>
    </g>
    <g id="xtick_2">
     <g id="line2d_2">
      <g>
       <use style="stroke:#000000;stroke-width:0.8;" x="152.925269" xlink:href="#m8ebd8c1d8a" y="293.2"/>
      </g>
     </g>
     <g id="text_2">
      <!-- 20 -->
      <g transform="translate(142.109019 313.117344)scale(0.17 -0.17)">
       <defs>
        <path d="M 19.1875 8.296875 
L 53.609375 8.296875 
L 53.609375 0 
L 7.328125 0 
L 7.328125 8.296875 
Q 12.9375 14.109375 22.625 23.890625 
Q 32.328125 33.6875 34.8125 36.53125 
Q 39.546875 41.84375 41.421875 45.53125 
Q 43.3125 49.21875 43.3125 52.78125 
Q 43.3125 58.59375 39.234375 62.25 
Q 35.15625 65.921875 28.609375 65.921875 
Q 23.96875 65.921875 18.8125 64.3125 
Q 13.671875 62.703125 7.8125 59.421875 
L 7.8125 69.390625 
Q 13.765625 71.78125 18.9375 73 
Q 24.125 74.21875 28.421875 74.21875 
Q 39.75 74.21875 46.484375 68.546875 
Q 53.21875 62.890625 53.21875 53.421875 
Q 53.21875 48.921875 51.53125 44.890625 
Q 49.859375 40.875 45.40625 35.40625 
Q 44.1875 33.984375 37.640625 27.21875 
Q 31.109375 20.453125 19.1875 8.296875 
z
" id="DejaVuSans-50"/>
       </defs>
       <use xlink:href="#DejaVuSans-50"/>
       <use x="63.623047" xlink:href="#DejaVuSans-48"/>
      </g>
     </g>
    </g>
    <g id="xtick_3">
     <g id="line2d_3">
      <g>
       <use style="stroke:#000000;stroke-width:0.8;" x="214.049483" xlink:href="#m8ebd8c1d8a" y="293.2"/>
      </g>
     </g>
     <g id="text_3">
      <!-- 40 -->
      <g transform="translate(203.233233 313.117344)scale(0.17 -0.17)">
       <defs>
        <path d="M 37.796875 64.3125 
L 12.890625 25.390625 
L 37.796875 25.390625 
z
M 35.203125 72.90625 
L 47.609375 72.90625 
L 47.609375 25.390625 
L 58.015625 25.390625 
L 58.015625 17.1875 
L 47.609375 17.1875 
L 47.609375 0 
L 37.796875 0 
L 37.796875 17.1875 
L 4.890625 17.1875 
L 4.890625 26.703125 
z
" id="DejaVuSans-52"/>
       </defs>
       <use xlink:href="#DejaVuSans-52"/>
       <use x="63.623047" xlink:href="#DejaVuSans-48"/>
      </g>
     </g>
    </g>
    <g id="xtick_4">
     <g id="line2d_4">
      <g>
       <use style="stroke:#000000;stroke-width:0.8;" x="275.173698" xlink:href="#m8ebd8c1d8a" y="293.2"/>
      </g>
     </g>
     <g id="text_4">
      <!-- 60 -->
      <g transform="translate(264.357448 313.117344)scale(0.17 -0.17)">
       <defs>
        <path d="M 33.015625 40.375 
Q 26.375 40.375 22.484375 35.828125 
Q 18.609375 31.296875 18.609375 23.390625 
Q 18.609375 15.53125 22.484375 10.953125 
Q 26.375 6.390625 33.015625 6.390625 
Q 39.65625 6.390625 43.53125 10.953125 
Q 47.40625 15.53125 47.40625 23.390625 
Q 47.40625 31.296875 43.53125 35.828125 
Q 39.65625 40.375 33.015625 40.375 
z
M 52.59375 71.296875 
L 52.59375 62.3125 
Q 48.875 64.0625 45.09375 64.984375 
Q 41.3125 65.921875 37.59375 65.921875 
Q 27.828125 65.921875 22.671875 59.328125 
Q 17.53125 52.734375 16.796875 39.40625 
Q 19.671875 43.65625 24.015625 45.921875 
Q 28.375 48.1875 33.59375 48.1875 
Q 44.578125 48.1875 50.953125 41.515625 
Q 57.328125 34.859375 57.328125 23.390625 
Q 57.328125 12.15625 50.6875 5.359375 
Q 44.046875 -1.421875 33.015625 -1.421875 
Q 20.359375 -1.421875 13.671875 8.265625 
Q 6.984375 17.96875 6.984375 36.375 
Q 6.984375 53.65625 15.1875 63.9375 
Q 23.390625 74.21875 37.203125 74.21875 
Q 40.921875 74.21875 44.703125 73.484375 
Q 48.484375 72.75 52.59375 71.296875 
z
" id="DejaVuSans-54"/>
       </defs>
       <use xlink:href="#DejaVuSans-54"/>
       <use x="63.623047" xlink:href="#DejaVuSans-48"/>
      </g>
     </g>
    </g>
    <g id="xtick_5">
     <g id="line2d_5">
      <g>
       <use style="stroke:#000000;stroke-width:0.8;" x="336.297913" xlink:href="#m8ebd8c1d8a" y="293.2"/>
      </g>
     </g>
     <g id="text_5">
      <!-- 80 -->
      <g transform="translate(325.481663 313.117344)scale(0.17 -0.17)">
       <defs>
        <path d="M 31.78125 34.625 
Q 24.75 34.625 20.71875 30.859375 
Q 16.703125 27.09375 16.703125 20.515625 
Q 16.703125 13.921875 20.71875 10.15625 
Q 24.75 6.390625 31.78125 6.390625 
Q 38.8125 6.390625 42.859375 10.171875 
Q 46.921875 13.96875 46.921875 20.515625 
Q 46.921875 27.09375 42.890625 30.859375 
Q 38.875 34.625 31.78125 34.625 
z
M 21.921875 38.8125 
Q 15.578125 40.375 12.03125 44.71875 
Q 8.5 49.078125 8.5 55.328125 
Q 8.5 64.0625 14.71875 69.140625 
Q 20.953125 74.21875 31.78125 74.21875 
Q 42.671875 74.21875 48.875 69.140625 
Q 55.078125 64.0625 55.078125 55.328125 
Q 55.078125 49.078125 51.53125 44.71875 
Q 48 40.375 41.703125 38.8125 
Q 48.828125 37.15625 52.796875 32.3125 
Q 56.78125 27.484375 56.78125 20.515625 
Q 56.78125 9.90625 50.3125 4.234375 
Q 43.84375 -1.421875 31.78125 -1.421875 
Q 19.734375 -1.421875 13.25 4.234375 
Q 6.78125 9.90625 6.78125 20.515625 
Q 6.78125 27.484375 10.78125 32.3125 
Q 14.796875 37.15625 21.921875 38.8125 
z
M 18.3125 54.390625 
Q 18.3125 48.734375 21.84375 45.5625 
Q 25.390625 42.390625 31.78125 42.390625 
Q 38.140625 42.390625 41.71875 45.5625 
Q 45.3125 48.734375 45.3125 54.390625 
Q 45.3125 60.0625 41.71875 63.234375 
Q 38.140625 66.40625 31.78125 66.40625 
Q 25.390625 66.40625 21.84375 63.234375 
Q 18.3125 60.0625 18.3125 54.390625 
z
" id="DejaVuSans-56"/>
       </defs>
       <use xlink:href="#DejaVuSans-56"/>
       <use x="63.623047" xlink:href="#DejaVuSans-48"/>
      </g>
     </g>
    </g>
    <g id="xtick_6">
     <g id="line2d_6">
      <g>
       <use style="stroke:#000000;stroke-width:0.8;" x="397.422128" xlink:href="#m8ebd8c1d8a" y="293.2"/>
      </g>
     </g>
     <g id="text_6">
      <!-- 100 -->
      <g transform="translate(381.197753 313.117344)scale(0.17 -0.17)">
       <defs>
        <path d="M 12.40625 8.296875 
L 28.515625 8.296875 
L 28.515625 63.921875 
L 10.984375 60.40625 
L 10.984375 69.390625 
L 28.421875 72.90625 
L 38.28125 72.90625 
L 38.28125 8.296875 
L 54.390625 8.296875 
L 54.390625 0 
L 12.40625 0 
z
" id="DejaVuSans-49"/>
       </defs>
       <use xlink:href="#DejaVuSans-49"/>
       <use x="63.623047" xlink:href="#DejaVuSans-48"/>
       <use x="127.246094" xlink:href="#DejaVuSans-48"/>
      </g>
     </g>
    </g>
    <g id="text_7">
     <!-- Score -->
     <g transform="translate(216.04681 336.153625)scale(0.204 -0.204)">
      <defs>
       <path d="M 53.515625 70.515625 
L 53.515625 60.890625 
Q 47.90625 63.578125 42.921875 64.890625 
Q 37.9375 66.21875 33.296875 66.21875 
Q 25.25 66.21875 20.875 63.09375 
Q 16.5 59.96875 16.5 54.203125 
Q 16.5 49.359375 19.40625 46.890625 
Q 22.3125 44.4375 30.421875 42.921875 
L 36.375 41.703125 
Q 47.40625 39.59375 52.65625 34.296875 
Q 57.90625 29 57.90625 20.125 
Q 57.90625 9.515625 50.796875 4.046875 
Q 43.703125 -1.421875 29.984375 -1.421875 
Q 24.8125 -1.421875 18.96875 -0.25 
Q 13.140625 0.921875 6.890625 3.21875 
L 6.890625 13.375 
Q 12.890625 10.015625 18.65625 8.296875 
Q 24.421875 6.59375 29.984375 6.59375 
Q 38.421875 6.59375 43.015625 9.90625 
Q 47.609375 13.234375 47.609375 19.390625 
Q 47.609375 24.75 44.3125 27.78125 
Q 41.015625 30.8125 33.5 32.328125 
L 27.484375 33.5 
Q 16.453125 35.6875 11.515625 40.375 
Q 6.59375 45.0625 6.59375 53.421875 
Q 6.59375 63.09375 13.40625 68.65625 
Q 20.21875 74.21875 32.171875 74.21875 
Q 37.3125 74.21875 42.625 73.28125 
Q 47.953125 72.359375 53.515625 70.515625 
z
" id="DejaVuSans-83"/>
       <path d="M 48.78125 52.59375 
L 48.78125 44.1875 
Q 44.96875 46.296875 41.140625 47.34375 
Q 37.3125 48.390625 33.40625 48.390625 
Q 24.65625 48.390625 19.8125 42.84375 
Q 14.984375 37.3125 14.984375 27.296875 
Q 14.984375 17.28125 19.8125 11.734375 
Q 24.65625 6.203125 33.40625 6.203125 
Q 37.3125 6.203125 41.140625 7.25 
Q 44.96875 8.296875 48.78125 10.40625 
L 48.78125 2.09375 
Q 45.015625 0.34375 40.984375 -0.53125 
Q 36.96875 -1.421875 32.421875 -1.421875 
Q 20.0625 -1.421875 12.78125 6.34375 
Q 5.515625 14.109375 5.515625 27.296875 
Q 5.515625 40.671875 12.859375 48.328125 
Q 20.21875 56 33.015625 56 
Q 37.15625 56 41.109375 55.140625 
Q 45.0625 54.296875 48.78125 52.59375 
z
" id="DejaVuSans-99"/>
       <path d="M 30.609375 48.390625 
Q 23.390625 48.390625 19.1875 42.75 
Q 14.984375 37.109375 14.984375 27.296875 
Q 14.984375 17.484375 19.15625 11.84375 
Q 23.34375 6.203125 30.609375 6.203125 
Q 37.796875 6.203125 41.984375 11.859375 
Q 46.1875 17.53125 46.1875 27.296875 
Q 46.1875 37.015625 41.984375 42.703125 
Q 37.796875 48.390625 30.609375 48.390625 
z
M 30.609375 56 
Q 42.328125 56 49.015625 48.375 
Q 55.71875 40.765625 55.71875 27.296875 
Q 55.71875 13.875 49.015625 6.21875 
Q 42.328125 -1.421875 30.609375 -1.421875 
Q 18.84375 -1.421875 12.171875 6.21875 
Q 5.515625 13.875 5.515625 27.296875 
Q 5.515625 40.765625 12.171875 48.375 
Q 18.84375 56 30.609375 56 
z
" id="DejaVuSans-111"/>
       <path d="M 41.109375 46.296875 
Q 39.59375 47.171875 37.8125 47.578125 
Q 36.03125 48 33.890625 48 
Q 26.265625 48 22.1875 43.046875 
Q 18.109375 38.09375 18.109375 28.8125 
L 18.109375 0 
L 9.078125 0 
L 9.078125 54.6875 
L 18.109375 54.6875 
L 18.109375 46.1875 
Q 20.953125 51.171875 25.484375 53.578125 
Q 30.03125 56 36.53125 56 
Q 37.453125 56 38.578125 55.875 
Q 39.703125 55.765625 41.0625 55.515625 
z
" id="DejaVuSans-114"/>
       <path d="M 56.203125 29.59375 
L 56.203125 25.203125 
L 14.890625 25.203125 
Q 15.484375 15.921875 20.484375 11.0625 
Q 25.484375 6.203125 34.421875 6.203125 
Q 39.59375 6.203125 44.453125 7.46875 
Q 49.3125 8.734375 54.109375 11.28125 
L 54.109375 2.78125 
Q 49.265625 0.734375 44.1875 -0.34375 
Q 39.109375 -1.421875 33.890625 -1.421875 
Q 20.796875 -1.421875 13.15625 6.1875 
Q 5.515625 13.8125 5.515625 26.8125 
Q 5.515625 40.234375 12.765625 48.109375 
Q 20.015625 56 32.328125 56 
Q 43.359375 56 49.78125 48.890625 
Q 56.203125 41.796875 56.203125 29.59375 
z
M 47.21875 32.234375 
Q 47.125 39.59375 43.09375 43.984375 
Q 39.0625 48.390625 32.421875 48.390625 
Q 24.90625 48.390625 20.390625 44.140625 
Q 15.875 39.890625 15.1875 32.171875 
z
" id="DejaVuSans-101"/>
      </defs>
      <use xlink:href="#DejaVuSans-83"/>
      <use x="63.476562" xlink:href="#DejaVuSans-99"/>
      <use x="118.457031" xlink:href="#DejaVuSans-111"/>
      <use x="179.638672" xlink:href="#DejaVuSans-114"/>
      <use x="218.501953" xlink:href="#DejaVuSans-101"/>
     </g>
    </g>
   </g>
   <g id="matplotlib.axis_2">
    <g id="ytick_1">
     <g id="line2d_7">
      <defs>
       <path d="M 0 0 
L -3.5 0 
" id="m18a159fb8c" style="stroke:#000000;stroke-width:0.8;"/>
      </defs>
      <g>
       <use style="stroke:#000000;stroke-width:0.8;" x="76.52" xlink:href="#m18a159fb8c" y="281.7"/>
      </g>
     </g>
     <g id="text_8">
      <!-- 0.0 -->
      <g transform="translate(42.484688 288.158672)scale(0.17 -0.17)">
       <defs>
        <path d="M 10.6875 12.40625 
L 21 12.40625 
L 21 0 
L 10.6875 0 
z
" id="DejaVuSans-46"/>
       </defs>
       <use xlink:href="#DejaVuSans-48"/>
       <use x="63.623047" xlink:href="#DejaVuSans-46"/>
       <use x="95.410156" xlink:href="#DejaVuSans-48"/>
      </g>
     </g>
    </g>
    <g id="ytick_2">
     <g id="line2d_8">
      <g>
       <use style="stroke:#000000;stroke-width:0.8;" x="76.52" xlink:href="#m18a159fb8c" y="235.7"/>
      </g>
     </g>
     <g id="text_9">
      <!-- 0.2 -->
      <g transform="translate(42.484688 242.158672)scale(0.17 -0.17)">
       <use xlink:href="#DejaVuSans-48"/>
       <use x="63.623047" xlink:href="#DejaVuSans-46"/>
       <use x="95.410156" xlink:href="#DejaVuSans-50"/>
      </g>
     </g>
    </g>
    <g id="ytick_3">
     <g id="line2d_9">
      <g>
       <use style="stroke:#000000;stroke-width:0.8;" x="76.52" xlink:href="#m18a159fb8c" y="189.7"/>
      </g>
     </g>
     <g id="text_10">
      <!-- 0.4 -->
      <g transform="translate(42.484688 196.158672)scale(0.17 -0.17)">
       <use xlink:href="#DejaVuSans-48"/>
       <use x="63.623047" xlink:href="#DejaVuSans-46"/>
       <use x="95.410156" xlink:href="#DejaVuSans-52"/>
      </g>
     </g>
    </g>
    <g id="ytick_4">
     <g id="line2d_10">
      <g>
       <use style="stroke:#000000;stroke-width:0.8;" x="76.52" xlink:href="#m18a159fb8c" y="143.7"/>
      </g>
     </g>
     <g id="text_11">
      <!-- 0.6 -->
      <g transform="translate(42.484688 150.158672)scale(0.17 -0.17)">
       <use xlink:href="#DejaVuSans-48"/>
       <use x="63.623047" xlink:href="#DejaVuSans-46"/>
       <use x="95.410156" xlink:href="#DejaVuSans-54"/>
      </g>
     </g>
    </g>
    <g id="ytick_5">
     <g id="line2d_11">
      <g>
       <use style="stroke:#000000;stroke-width:0.8;" x="76.52" xlink:href="#m18a159fb8c" y="97.7"/>
      </g>
     </g>
     <g id="text_12">
      <!-- 0.8 -->
      <g transform="translate(42.484688 104.158672)scale(0.17 -0.17)">
       <use xlink:href="#DejaVuSans-48"/>
       <use x="63.623047" xlink:href="#DejaVuSans-46"/>
       <use x="95.410156" xlink:href="#DejaVuSans-56"/>
      </g>
     </g>
    </g>
    <g id="ytick_6">
     <g id="line2d_12">
      <g>
       <use style="stroke:#000000;stroke-width:0.8;" x="76.52" xlink:href="#m18a159fb8c" y="51.7"/>
      </g>
     </g>
     <g id="text_13">
      <!-- 1.0 -->
      <g transform="translate(42.484688 58.158672)scale(0.17 -0.17)">
       <use xlink:href="#DejaVuSans-49"/>
       <use x="63.623047" xlink:href="#DejaVuSans-46"/>
       <use x="95.410156" xlink:href="#DejaVuSans-48"/>
      </g>
     </g>
    </g>
    <g id="text_14">
     <!-- Density -->
     <g transform="translate(34.242125 205.477531)rotate(-90)scale(0.204 -0.204)">
      <defs>
       <path d="M 19.671875 64.796875 
L 19.671875 8.109375 
L 31.59375 8.109375 
Q 46.6875 8.109375 53.6875 14.9375 
Q 60.6875 21.78125 60.6875 36.53125 
Q 60.6875 51.171875 53.6875 57.984375 
Q 46.6875 64.796875 31.59375 64.796875 
z
M 9.8125 72.90625 
L 30.078125 72.90625 
Q 51.265625 72.90625 61.171875 64.09375 
Q 71.09375 55.28125 71.09375 36.53125 
Q 71.09375 17.671875 61.125 8.828125 
Q 51.171875 0 30.078125 0 
L 9.8125 0 
z
" id="DejaVuSans-68"/>
       <path d="M 54.890625 33.015625 
L 54.890625 0 
L 45.90625 0 
L 45.90625 32.71875 
Q 45.90625 40.484375 42.875 44.328125 
Q 39.84375 48.1875 33.796875 48.1875 
Q 26.515625 48.1875 22.3125 43.546875 
Q 18.109375 38.921875 18.109375 30.90625 
L 18.109375 0 
L 9.078125 0 
L 9.078125 54.6875 
L 18.109375 54.6875 
L 18.109375 46.1875 
Q 21.34375 51.125 25.703125 53.5625 
Q 30.078125 56 35.796875 56 
Q 45.21875 56 50.046875 50.171875 
Q 54.890625 44.34375 54.890625 33.015625 
z
" id="DejaVuSans-110"/>
       <path d="M 44.28125 53.078125 
L 44.28125 44.578125 
Q 40.484375 46.53125 36.375 47.5 
Q 32.28125 48.484375 27.875 48.484375 
Q 21.1875 48.484375 17.84375 46.4375 
Q 14.5 44.390625 14.5 40.28125 
Q 14.5 37.15625 16.890625 35.375 
Q 19.28125 33.59375 26.515625 31.984375 
L 29.59375 31.296875 
Q 39.15625 29.25 43.1875 25.515625 
Q 47.21875 21.78125 47.21875 15.09375 
Q 47.21875 7.46875 41.1875 3.015625 
Q 35.15625 -1.421875 24.609375 -1.421875 
Q 20.21875 -1.421875 15.453125 -0.5625 
Q 10.6875 0.296875 5.421875 2 
L 5.421875 11.28125 
Q 10.40625 8.6875 15.234375 7.390625 
Q 20.0625 6.109375 24.8125 6.109375 
Q 31.15625 6.109375 34.5625 8.28125 
Q 37.984375 10.453125 37.984375 14.40625 
Q 37.984375 18.0625 35.515625 20.015625 
Q 33.0625 21.96875 24.703125 23.78125 
L 21.578125 24.515625 
Q 13.234375 26.265625 9.515625 29.90625 
Q 5.8125 33.546875 5.8125 39.890625 
Q 5.8125 47.609375 11.28125 51.796875 
Q 16.75 56 26.8125 56 
Q 31.78125 56 36.171875 55.265625 
Q 40.578125 54.546875 44.28125 53.078125 
z
" id="DejaVuSans-115"/>
       <path d="M 9.421875 54.6875 
L 18.40625 54.6875 
L 18.40625 0 
L 9.421875 0 
z
M 9.421875 75.984375 
L 18.40625 75.984375 
L 18.40625 64.59375 
L 9.421875 64.59375 
z
" id="DejaVuSans-105"/>
       <path d="M 18.3125 70.21875 
L 18.3125 54.6875 
L 36.8125 54.6875 
L 36.8125 47.703125 
L 18.3125 47.703125 
L 18.3125 18.015625 
Q 18.3125 11.328125 20.140625 9.421875 
Q 21.96875 7.515625 27.59375 7.515625 
L 36.8125 7.515625 
L 36.8125 0 
L 27.59375 0 
Q 17.1875 0 13.234375 3.875 
Q 9.28125 7.765625 9.28125 18.015625 
L 9.28125 47.703125 
L 2.6875 47.703125 
L 2.6875 54.6875 
L 9.28125 54.6875 
L 9.28125 70.21875 
z
" id="DejaVuSans-116"/>
       <path d="M 32.171875 -5.078125 
Q 28.375 -14.84375 24.75 -17.8125 
Q 21.140625 -20.796875 15.09375 -20.796875 
L 7.90625 -20.796875 
L 7.90625 -13.28125 
L 13.1875 -13.28125 
Q 16.890625 -13.28125 18.9375 -11.515625 
Q 21 -9.765625 23.484375 -3.21875 
L 25.09375 0.875 
L 2.984375 54.6875 
L 12.5 54.6875 
L 29.59375 11.921875 
L 46.6875 54.6875 
L 56.203125 54.6875 
z
" id="DejaVuSans-121"/>
      </defs>
      <use xlink:href="#DejaVuSans-68"/>
      <use x="77.001953" xlink:href="#DejaVuSans-101"/>
      <use x="138.525391" xlink:href="#DejaVuSans-110"/>
      <use x="201.904297" xlink:href="#DejaVuSans-115"/>
      <use x="254.003906" xlink:href="#DejaVuSans-105"/>
      <use x="281.787109" xlink:href="#DejaVuSans-116"/>
      <use x="320.996094" xlink:href="#DejaVuSans-121"/>
     </g>
    </g>
   </g>
   <g id="line2d_13">
    <path clip-path="url(#p627d7a5af8)" d="M 91.801054 281.7 
L 93.329159 281.401 
L 94.857264 279.676 
L 96.38537 279.239 
L 97.913475 278.664 
L 99.441581 278.227 
L 104.025897 275.996 
L 105.554002 275.766 
L 107.082107 274.57 
L 110.138318 272.73 
L 111.666424 272.316 
L 116.25074 270.154 
L 117.778845 269.878 
L 119.30695 269.326 
L 120.835056 268.981 
L 122.363161 268.498 
L 123.891267 268.268 
L 125.419372 267.325 
L 126.947477 266.842 
L 128.475583 265.715 
L 133.059899 263.369 
L 134.588004 262.38 
L 136.11611 261.736 
L 139.17232 259.965 
L 143.756636 257.964 
L 145.284742 257.481 
L 146.812847 256.492 
L 148.340952 256.147 
L 149.869058 255.227 
L 151.397163 254.56 
L 152.925269 253.249 
L 155.981479 251.754 
L 157.509585 251.248 
L 159.03769 250.42 
L 162.093901 249.063 
L 163.622006 248.557 
L 165.150112 247.315 
L 166.678217 246.74 
L 168.206322 246.027 
L 169.734428 245.544 
L 174.318744 242.37 
L 175.846849 241.68 
L 177.374955 240.53 
L 178.90306 239.679 
L 180.431165 238.161 
L 181.959271 237.632 
L 183.487376 236.321 
L 185.015481 235.286 
L 186.543587 233.4 
L 189.599798 231.537 
L 192.656008 228.984 
L 194.184114 228.064 
L 195.712219 226.615 
L 197.240324 225.718 
L 198.76843 223.901 
L 200.296535 223.096 
L 201.82464 221.532 
L 203.352746 220.75 
L 204.880851 218.703 
L 206.408957 218.013 
L 207.937062 216.058 
L 209.465167 215.437 
L 210.993273 213.482 
L 212.521378 212.999 
L 215.577589 210.745 
L 217.105694 209.158 
L 218.6338 208.422 
L 220.161905 206.904 
L 221.69001 205.915 
L 224.746221 203.316 
L 226.274326 201.545 
L 230.858643 197.313 
L 232.386748 195.772 
L 233.914853 194.484 
L 235.442959 192.46 
L 236.971064 191.241 
L 238.499169 189.378 
L 240.027275 188.366 
L 243.083486 185.905 
L 244.611591 184.226 
L 246.139696 183.306 
L 247.667802 181.351 
L 249.195907 180.224 
L 250.724012 178.223 
L 252.252118 176.751 
L 256.836434 170.794 
L 258.364539 169.575 
L 259.892645 167.275 
L 261.42075 166.332 
L 262.948855 164.699 
L 264.476961 163.342 
L 266.005066 161.387 
L 267.533171 160.237 
L 269.061277 158.696 
L 270.589382 157.385 
L 272.117488 155.453 
L 273.645593 154.165 
L 275.173698 151.98 
L 278.229909 149.634 
L 281.28612 146.69 
L 282.814225 144.482 
L 284.342331 143.056 
L 287.398541 139.422 
L 288.926647 138.594 
L 290.454752 136.754 
L 291.982857 135.696 
L 295.039068 132.729 
L 296.567174 132.085 
L 298.095279 129.739 
L 299.623384 129.141 
L 301.15149 128.29 
L 302.679595 126.45 
L 305.735806 124.104 
L 310.320122 121.436 
L 311.848227 119.366 
L 314.904438 116.721 
L 316.432543 116.077 
L 317.960649 114.973 
L 319.488754 113.34 
L 322.544965 110.764 
L 324.07307 109.821 
L 325.601176 108.625 
L 327.129281 105.037 
L 330.185492 103.013 
L 331.713597 102.162 
L 334.769808 99.931 
L 337.826019 97.493 
L 339.354124 95.308 
L 346.994651 89.581 
L 348.522756 87.833 
L 351.578967 86.246 
L 353.107072 84.567 
L 354.635178 83.716 
L 356.163283 82.244 
L 357.691388 81.554 
L 359.219494 80.059 
L 360.747599 79.254 
L 362.275705 77.759 
L 363.80381 76.77 
L 365.331915 75.114 
L 371.444337 71.779 
L 372.972442 70.652 
L 376.028653 68.812 
L 377.556758 67.363 
L 379.084864 66.213 
L 380.612969 64.281 
L 382.141074 62.74 
L 383.66918 62.142 
L 385.197285 60.256 
L 386.72539 59.75 
L 388.253496 58.324 
L 389.781601 56.461 
L 391.309707 54.138 
L 392.837812 52.597 
L 394.365917 51.953 
L 397.422128 51.7 
L 397.422128 51.7 
" style="fill:none;stroke:#0000ff;stroke-linecap:square;stroke-width:3;"/>
   </g>
   <g id="line2d_14">
    <path clip-path="url(#p627d7a5af8)" d="M 91.801054 281.539 
L 93.329159 278.963 
L 94.857264 269.441 
L 96.38537 266.819 
L 99.441581 260.379 
L 100.969686 255.94 
L 102.497791 252.214 
L 104.025897 248.166 
L 105.554002 246.832 
L 107.082107 240.944 
L 108.610213 236.137 
L 110.138318 231.744 
L 111.666424 228.961 
L 113.194529 224.913 
L 114.722634 223.027 
L 116.25074 219.715 
L 117.778845 218.335 
L 119.30695 215.943 
L 120.835056 214.126 
L 122.363161 211.665 
L 123.891267 210.032 
L 126.947477 205.041 
L 128.475583 200.947 
L 130.003688 198.739 
L 131.531793 196.14 
L 133.059899 193.817 
L 134.588004 190.183 
L 136.11611 187.975 
L 137.644215 184.939 
L 139.17232 183.007 
L 140.700426 180.408 
L 142.228531 178.476 
L 143.756636 176.291 
L 149.869058 169.552 
L 151.397163 168.333 
L 152.925269 159.685 
L 154.453374 157.408 
L 155.981479 154.648 
L 157.509585 153.13 
L 159.03769 151.152 
L 160.565795 149.749 
L 162.093901 147.84 
L 163.622006 146.322 
L 165.150112 143.7 
L 166.678217 142.274 
L 168.206322 140.365 
L 169.734428 138.916 
L 171.262533 136.961 
L 172.790638 135.558 
L 174.318744 133.603 
L 175.846849 132.2 
L 177.374955 130.245 
L 178.90306 128.957 
L 180.431165 126.956 
L 181.959271 126.105 
L 183.487376 124.449 
L 185.015481 123.345 
L 186.543587 121.643 
L 188.071692 120.746 
L 189.599798 119.32 
L 191.127903 118.262 
L 195.712219 114.559 
L 197.240324 113.455 
L 198.76843 111.615 
L 200.296535 111.04 
L 201.82464 109.591 
L 203.352746 108.947 
L 204.880851 107.199 
L 206.408957 106.532 
L 207.937062 104.876 
L 209.465167 104.163 
L 210.993273 102.944 
L 212.521378 102.415 
L 214.049483 101.564 
L 215.577589 100.575 
L 217.105694 99.356 
L 218.6338 98.873 
L 220.161905 97.562 
L 221.69001 96.711 
L 223.218116 95.515 
L 224.746221 94.894 
L 226.274326 93.652 
L 230.858643 91.145 
L 232.386748 90.271 
L 233.914853 89.834 
L 235.442959 88.799 
L 236.971064 88.316 
L 238.499169 87.442 
L 240.027275 86.982 
L 243.083486 85.74 
L 244.611591 84.912 
L 246.139696 84.475 
L 247.667802 83.785 
L 250.724012 82.842 
L 252.252118 82.313 
L 256.836434 80.312 
L 258.364539 79.99 
L 259.892645 79.162 
L 266.005066 77.138 
L 267.533171 76.885 
L 273.645593 75.045 
L 275.173698 74.332 
L 276.701804 74.056 
L 281.28612 72.722 
L 287.398541 70.905 
L 291.982857 70.031 
L 293.510963 69.686 
L 296.567174 69.272 
L 298.095279 68.674 
L 301.15149 68.283 
L 302.679595 67.892 
L 305.735806 67.363 
L 307.263911 67.018 
L 310.320122 66.558 
L 311.848227 66.167 
L 314.904438 65.546 
L 316.432543 65.362 
L 317.960649 65.04 
L 322.544965 63.844 
L 324.07307 63.614 
L 325.601176 63.246 
L 327.129281 62.602 
L 336.297913 61.13 
L 339.354124 60.21 
L 343.93844 59.52 
L 346.994651 58.945 
L 348.522756 58.6 
L 351.578967 58.117 
L 353.107072 57.634 
L 357.691388 56.921 
L 359.219494 56.553 
L 360.747599 56.461 
L 362.275705 56.185 
L 363.80381 56.047 
L 365.331915 55.748 
L 368.388126 55.495 
L 371.444337 55.288 
L 372.972442 54.989 
L 377.556758 54.345 
L 382.141074 53.517 
L 383.66918 53.425 
L 385.197285 53.126 
L 386.72539 53.034 
L 388.253496 52.827 
L 389.781601 52.505 
L 391.309707 51.953 
L 394.365917 51.723 
L 397.422128 51.7 
L 397.422128 51.7 
" style="fill:none;stroke:#008000;stroke-dasharray:11.1,4.8;stroke-dashoffset:0;stroke-width:3;"/>
   </g>
   <g id="line2d_15">
    <path clip-path="url(#p627d7a5af8)" d="M 91.801054 281.677 
L 93.329159 280.619 
L 94.857264 276.594 
L 96.38537 275.398 
L 97.913475 273.673 
L 99.441581 272.408 
L 100.969686 270.154 
L 102.497791 268.429 
L 104.025897 266.52 
L 105.554002 265.784 
L 107.082107 262.794 
L 108.610213 260.287 
L 110.138318 258.286 
L 111.666424 256.86 
L 113.194529 254.238 
L 114.722634 253.226 
L 116.25074 251.386 
L 117.778845 250.42 
L 119.30695 249.293 
L 122.363161 246.74 
L 123.891267 245.613 
L 125.419372 244.026 
L 126.947477 242.784 
L 128.475583 240.231 
L 130.003688 238.966 
L 131.531793 237.172 
L 133.059899 235.815 
L 134.588004 233.17 
L 136.11611 231.652 
L 137.644215 229.674 
L 139.17232 228.317 
L 140.700426 226.454 
L 142.228531 224.913 
L 143.756636 223.073 
L 145.284742 221.969 
L 146.812847 220.474 
L 148.340952 219.37 
L 149.869058 217.806 
L 151.397163 216.817 
L 152.925269 211.987 
L 154.453374 210.561 
L 155.981479 208.33 
L 157.509585 207.387 
L 159.03769 205.777 
L 160.565795 204.535 
L 162.093901 202.948 
L 163.622006 201.062 
L 165.150112 198.463 
L 166.678217 197.06 
L 168.206322 195.036 
L 169.734428 193.909 
L 171.262533 192.115 
L 172.790638 190.505 
L 174.318744 188.32 
L 175.846849 186.756 
L 177.374955 184.617 
L 178.90306 182.961 
L 180.431165 180.477 
L 181.959271 179.258 
L 183.487376 177.464 
L 185.015481 176.498 
L 186.543587 174.313 
L 188.071692 173.048 
L 189.599798 171.185 
L 191.127903 169.598 
L 194.184114 166.792 
L 197.240324 163.756 
L 198.76843 161.64 
L 200.296535 160.628 
L 201.82464 158.489 
L 203.352746 157.592 
L 204.880851 155.108 
L 206.408957 154.326 
L 207.937062 152.003 
L 209.465167 151.267 
L 210.993273 149.335 
L 212.521378 148.691 
L 214.049483 147.449 
L 215.577589 146.483 
L 217.105694 144.919 
L 218.6338 144.091 
L 220.161905 142.32 
L 221.69001 141.262 
L 223.218116 139.629 
L 224.746221 138.663 
L 226.274326 136.731 
L 227.802432 135.466 
L 229.330537 133.994 
L 232.386748 131.349 
L 233.914853 130.567 
L 235.442959 128.819 
L 236.971064 128.037 
L 238.499169 126.45 
L 240.027275 125.599 
L 243.083486 123.506 
L 244.611591 122.126 
L 246.139696 121.436 
L 247.667802 120.102 
L 249.195907 119.182 
L 250.724012 117.871 
L 256.836434 113.133 
L 258.364539 112.42 
L 259.892645 111.04 
L 261.42075 110.189 
L 262.948855 108.878 
L 264.476961 107.981 
L 266.005066 106.601 
L 267.533171 105.842 
L 269.061277 104.554 
L 270.589382 103.68 
L 272.117488 102.576 
L 273.645593 101.748 
L 275.173698 100.483 
L 276.701804 99.77 
L 285.870436 94.618 
L 287.398541 93.56 
L 288.926647 93.008 
L 290.454752 92.019 
L 291.982857 91.605 
L 293.510963 90.708 
L 295.039068 89.972 
L 296.567174 89.512 
L 298.095279 88.339 
L 301.15149 87.465 
L 302.679595 86.453 
L 308.792017 84.038 
L 310.320122 83.555 
L 311.848227 82.543 
L 317.960649 80.68 
L 321.01686 78.817 
L 325.601176 77.138 
L 327.129281 75.62 
L 330.185492 74.493 
L 331.713597 74.102 
L 337.826019 71.572 
L 339.354124 70.583 
L 343.93844 69.111 
L 345.466545 68.628 
L 346.994651 68.007 
L 348.522756 67.11 
L 351.578967 66.213 
L 353.107072 65.247 
L 354.635178 64.856 
L 356.163283 64.074 
L 357.691388 63.798 
L 359.219494 63.131 
L 360.747599 62.763 
L 362.275705 62.142 
L 363.80381 61.866 
L 365.331915 61.176 
L 368.388126 60.348 
L 369.916231 60.164 
L 371.444337 59.842 
L 372.972442 59.267 
L 376.028653 58.531 
L 377.556758 57.795 
L 379.084864 57.289 
L 380.612969 56.461 
L 382.141074 55.817 
L 383.66918 55.518 
L 385.197285 54.828 
L 386.72539 54.667 
L 388.253496 54.184 
L 389.781601 53.448 
L 391.309707 52.482 
L 392.837812 51.976 
L 394.365917 51.746 
L 397.422128 51.7 
L 397.422128 51.7 
" style="fill:none;stroke:#00bfbf;stroke-dasharray:19.2,4.8,3,4.8;stroke-dashoffset:0;stroke-width:3;"/>
   </g>
   <g id="line2d_16">
    <path clip-path="url(#p627d7a5af8)" d="M 91.801054 281.677 
L 93.329159 281.102 
L 94.857264 279.032 
L 96.38537 278.411 
L 97.913475 277.56 
L 99.441581 276.893 
L 102.497791 274.892 
L 104.025897 273.903 
L 105.554002 273.558 
L 107.082107 272.063 
L 110.138318 269.556 
L 111.666424 268.912 
L 113.194529 267.647 
L 114.722634 267.118 
L 116.25074 266.037 
L 117.778845 265.554 
L 119.30695 264.818 
L 120.835056 264.22 
L 122.363161 263.415 
L 123.891267 262.84 
L 125.419372 261.874 
L 126.947477 261.138 
L 128.475583 259.712 
L 130.003688 258.884 
L 131.531793 257.78 
L 133.059899 256.952 
L 134.588004 255.457 
L 136.11611 254.675 
L 137.644215 253.433 
L 139.17232 252.697 
L 140.700426 251.593 
L 142.228531 250.811 
L 143.756636 249.868 
L 145.284742 249.201 
L 146.812847 248.212 
L 148.340952 247.568 
L 149.869058 246.648 
L 151.397163 246.05 
L 152.925269 243.658 
L 154.453374 242.876 
L 155.981479 241.749 
L 157.509585 241.128 
L 159.03769 240.139 
L 160.565795 239.426 
L 163.622006 237.701 
L 165.150112 236.321 
L 166.678217 235.493 
L 168.206322 234.458 
L 169.734428 233.768 
L 172.790638 231.859 
L 174.318744 230.479 
L 175.846849 229.674 
L 177.374955 228.363 
L 178.90306 227.535 
L 180.431165 225.856 
L 181.959271 224.867 
L 183.487376 223.648 
L 185.015481 222.843 
L 186.543587 221.394 
L 188.071692 220.566 
L 189.599798 219.439 
L 191.127903 218.496 
L 192.656008 217.3 
L 194.184114 216.38 
L 197.240324 214.011 
L 198.76843 212.332 
L 200.296535 211.734 
L 201.82464 210.009 
L 203.352746 209.25 
L 204.880851 207.479 
L 206.408957 206.697 
L 207.937062 204.972 
L 209.465167 204.282 
L 210.993273 202.764 
L 212.521378 202.212 
L 214.049483 200.993 
L 215.577589 200.096 
L 217.105694 198.762 
L 218.6338 198.141 
L 220.161905 196.669 
L 221.69001 195.795 
L 223.218116 194.369 
L 224.746221 193.472 
L 227.802432 190.758 
L 230.858643 188.412 
L 232.386748 187.101 
L 233.914853 186.25 
L 235.442959 184.502 
L 236.971064 183.743 
L 238.499169 181.949 
L 240.027275 181.029 
L 243.083486 178.844 
L 244.611591 177.441 
L 246.139696 176.751 
L 247.667802 175.463 
L 249.195907 174.474 
L 250.724012 173.14 
L 252.252118 172.22 
L 256.836434 168.333 
L 258.364539 167.643 
L 259.892645 166.125 
L 261.42075 165.274 
L 262.948855 163.917 
L 264.476961 163.066 
L 266.005066 161.663 
L 267.533171 160.835 
L 269.061277 159.409 
L 270.589382 158.443 
L 272.117488 157.017 
L 273.645593 156.005 
L 275.173698 154.464 
L 276.701804 153.728 
L 284.342331 147.771 
L 287.398541 145.011 
L 288.926647 144.367 
L 290.454752 143.033 
L 291.982857 142.182 
L 293.510963 140.802 
L 296.567174 139.307 
L 298.095279 137.697 
L 299.623384 137.168 
L 301.15149 136.455 
L 302.679595 134.822 
L 307.263911 131.855 
L 310.320122 130.314 
L 311.848227 128.589 
L 317.960649 124.771 
L 321.01686 121.436 
L 325.601176 118.078 
L 327.129281 115.571 
L 330.185492 113.202 
L 331.713597 112.19 
L 333.241702 110.718 
L 334.769808 109.706 
L 337.826019 107.015 
L 339.354124 104.554 
L 343.93844 101.173 
L 345.466545 99.954 
L 346.994651 98.298 
L 348.522756 96.343 
L 351.578967 94.158 
L 353.107072 91.927 
L 354.635178 90.639 
L 356.163283 89.075 
L 357.691388 88.132 
L 359.219494 86.269 
L 360.747599 85.349 
L 362.275705 83.486 
L 363.80381 82.474 
L 365.331915 80.335 
L 368.388126 78.127 
L 369.916231 77.437 
L 371.444337 76.356 
L 372.972442 74.746 
L 376.028653 72.469 
L 377.556758 70.514 
L 379.084864 68.904 
L 380.612969 66.236 
L 382.141074 64.189 
L 383.66918 63.384 
L 385.197285 61.245 
L 386.72539 60.647 
L 388.253496 59.129 
L 389.781601 57.013 
L 391.309707 54.138 
L 392.837812 52.574 
L 394.365917 51.907 
L 395.894023 51.746 
L 397.422128 51.7 
L 397.422128 51.7 
" style="fill:none;stroke:#ff0000;stroke-dasharray:3,4.95;stroke-dashoffset:0;stroke-width:3;"/>
   </g>
   <g id="patch_3">
    <path d="M 76.52 293.2 
L 76.52 40.2 
" style="fill:none;stroke:#000000;stroke-linecap:square;stroke-linejoin:miter;stroke-width:0.8;"/>
   </g>
   <g id="patch_4">
    <path d="M 412.703182 293.2 
L 412.703182 40.2 
" style="fill:none;stroke:#000000;stroke-linecap:square;stroke-linejoin:miter;stroke-width:0.8;"/>
   </g>
   <g id="patch_5">
    <path d="M 76.52 293.2 
L 412.703182 293.2 
" style="fill:none;stroke:#000000;stroke-linecap:square;stroke-linejoin:miter;stroke-width:0.8;"/>
   </g>
   <g id="patch_6">
    <path d="M 76.52 40.2 
L 412.703182 40.2 
" style="fill:none;stroke:#000000;stroke-linecap:square;stroke-linejoin:miter;stroke-width:0.8;"/>
   </g>
   <g id="text_15">
    <!-- Cumulative density -->
    <g transform="translate(145.754466 34.2)scale(0.204 -0.204)">
     <defs>
      <path d="M 64.40625 67.28125 
L 64.40625 56.890625 
Q 59.421875 61.53125 53.78125 63.8125 
Q 48.140625 66.109375 41.796875 66.109375 
Q 29.296875 66.109375 22.65625 58.46875 
Q 16.015625 50.828125 16.015625 36.375 
Q 16.015625 21.96875 22.65625 14.328125 
Q 29.296875 6.6875 41.796875 6.6875 
Q 48.140625 6.6875 53.78125 8.984375 
Q 59.421875 11.28125 64.40625 15.921875 
L 64.40625 5.609375 
Q 59.234375 2.09375 53.4375 0.328125 
Q 47.65625 -1.421875 41.21875 -1.421875 
Q 24.65625 -1.421875 15.125 8.703125 
Q 5.609375 18.84375 5.609375 36.375 
Q 5.609375 53.953125 15.125 64.078125 
Q 24.65625 74.21875 41.21875 74.21875 
Q 47.75 74.21875 53.53125 72.484375 
Q 59.328125 70.75 64.40625 67.28125 
z
" id="DejaVuSans-67"/>
      <path d="M 8.5 21.578125 
L 8.5 54.6875 
L 17.484375 54.6875 
L 17.484375 21.921875 
Q 17.484375 14.15625 20.5 10.265625 
Q 23.53125 6.390625 29.59375 6.390625 
Q 36.859375 6.390625 41.078125 11.03125 
Q 45.3125 15.671875 45.3125 23.6875 
L 45.3125 54.6875 
L 54.296875 54.6875 
L 54.296875 0 
L 45.3125 0 
L 45.3125 8.40625 
Q 42.046875 3.421875 37.71875 1 
Q 33.40625 -1.421875 27.6875 -1.421875 
Q 18.265625 -1.421875 13.375 4.4375 
Q 8.5 10.296875 8.5 21.578125 
z
M 31.109375 56 
z
" id="DejaVuSans-117"/>
      <path d="M 52 44.1875 
Q 55.375 50.25 60.0625 53.125 
Q 64.75 56 71.09375 56 
Q 79.640625 56 84.28125 50.015625 
Q 88.921875 44.046875 88.921875 33.015625 
L 88.921875 0 
L 79.890625 0 
L 79.890625 32.71875 
Q 79.890625 40.578125 77.09375 44.375 
Q 74.3125 48.1875 68.609375 48.1875 
Q 61.625 48.1875 57.5625 43.546875 
Q 53.515625 38.921875 53.515625 30.90625 
L 53.515625 0 
L 44.484375 0 
L 44.484375 32.71875 
Q 44.484375 40.625 41.703125 44.40625 
Q 38.921875 48.1875 33.109375 48.1875 
Q 26.21875 48.1875 22.15625 43.53125 
Q 18.109375 38.875 18.109375 30.90625 
L 18.109375 0 
L 9.078125 0 
L 9.078125 54.6875 
L 18.109375 54.6875 
L 18.109375 46.1875 
Q 21.1875 51.21875 25.484375 53.609375 
Q 29.78125 56 35.6875 56 
Q 41.65625 56 45.828125 52.96875 
Q 50 49.953125 52 44.1875 
z
" id="DejaVuSans-109"/>
      <path d="M 9.421875 75.984375 
L 18.40625 75.984375 
L 18.40625 0 
L 9.421875 0 
z
" id="DejaVuSans-108"/>
      <path d="M 34.28125 27.484375 
Q 23.390625 27.484375 19.1875 25 
Q 14.984375 22.515625 14.984375 16.5 
Q 14.984375 11.71875 18.140625 8.90625 
Q 21.296875 6.109375 26.703125 6.109375 
Q 34.1875 6.109375 38.703125 11.40625 
Q 43.21875 16.703125 43.21875 25.484375 
L 43.21875 27.484375 
z
M 52.203125 31.203125 
L 52.203125 0 
L 43.21875 0 
L 43.21875 8.296875 
Q 40.140625 3.328125 35.546875 0.953125 
Q 30.953125 -1.421875 24.3125 -1.421875 
Q 15.921875 -1.421875 10.953125 3.296875 
Q 6 8.015625 6 15.921875 
Q 6 25.140625 12.171875 29.828125 
Q 18.359375 34.515625 30.609375 34.515625 
L 43.21875 34.515625 
L 43.21875 35.40625 
Q 43.21875 41.609375 39.140625 45 
Q 35.0625 48.390625 27.6875 48.390625 
Q 23 48.390625 18.546875 47.265625 
Q 14.109375 46.140625 10.015625 43.890625 
L 10.015625 52.203125 
Q 14.9375 54.109375 19.578125 55.046875 
Q 24.21875 56 28.609375 56 
Q 40.484375 56 46.34375 49.84375 
Q 52.203125 43.703125 52.203125 31.203125 
z
" id="DejaVuSans-97"/>
      <path d="M 2.984375 54.6875 
L 12.5 54.6875 
L 29.59375 8.796875 
L 46.6875 54.6875 
L 56.203125 54.6875 
L 35.6875 0 
L 23.484375 0 
z
" id="DejaVuSans-118"/>
      <path id="DejaVuSans-32"/>
      <path d="M 45.40625 46.390625 
L 45.40625 75.984375 
L 54.390625 75.984375 
L 54.390625 0 
L 45.40625 0 
L 45.40625 8.203125 
Q 42.578125 3.328125 38.25 0.953125 
Q 33.9375 -1.421875 27.875 -1.421875 
Q 17.96875 -1.421875 11.734375 6.484375 
Q 5.515625 14.40625 5.515625 27.296875 
Q 5.515625 40.1875 11.734375 48.09375 
Q 17.96875 56 27.875 56 
Q 33.9375 56 38.25 53.625 
Q 42.578125 51.265625 45.40625 46.390625 
z
M 14.796875 27.296875 
Q 14.796875 17.390625 18.875 11.75 
Q 22.953125 6.109375 30.078125 6.109375 
Q 37.203125 6.109375 41.296875 11.75 
Q 45.40625 17.390625 45.40625 27.296875 
Q 45.40625 37.203125 41.296875 42.84375 
Q 37.203125 48.484375 30.078125 48.484375 
Q 22.953125 48.484375 18.875 42.84375 
Q 14.796875 37.203125 14.796875 27.296875 
z
" id="DejaVuSans-100"/>
     </defs>
     <use xlink:href="#DejaVuSans-67"/>
     <use x="69.824219" xlink:href="#DejaVuSans-117"/>
     <use x="133.203125" xlink:href="#DejaVuSans-109"/>
     <use x="230.615234" xlink:href="#DejaVuSans-117"/>
     <use x="293.994141" xlink:href="#DejaVuSans-108"/>
     <use x="321.777344" xlink:href="#DejaVuSans-97"/>
     <use x="383.056641" xlink:href="#DejaVuSans-116"/>
     <use x="422.265625" xlink:href="#DejaVuSans-105"/>
     <use x="450.048828" xlink:href="#DejaVuSans-118"/>
     <use x="509.228516" xlink:href="#DejaVuSans-101"/>
     <use x="570.751953" xlink:href="#DejaVuSans-32"/>
     <use x="602.539062" xlink:href="#DejaVuSans-100"/>
     <use x="666.015625" xlink:href="#DejaVuSans-101"/>
     <use x="727.539062" xlink:href="#DejaVuSans-110"/>
     <use x="790.917969" xlink:href="#DejaVuSans-115"/>
     <use x="843.017578" xlink:href="#DejaVuSans-105"/>
     <use x="870.800781" xlink:href="#DejaVuSans-116"/>
     <use x="910.009766" xlink:href="#DejaVuSans-121"/>
    </g>
   </g>
   <g id="legend_1">
    <g id="patch_7">
     <path d="M 273.985838 284.7 
L 400.803182 284.7 
Q 404.203182 284.7 404.203182 281.3 
L 404.203182 183.18875 
Q 404.203182 179.78875 400.803182 179.78875 
L 273.985838 179.78875 
Q 270.585838 179.78875 270.585838 183.18875 
L 270.585838 281.3 
Q 270.585838 284.7 273.985838 284.7 
z
" style="fill:#ffffff;opacity:0.8;stroke:#cccccc;stroke-linejoin:miter;"/>
    </g>
    <g id="line2d_17">
     <path d="M 277.385838 193.556094 
L 311.385838 193.556094 
" style="fill:none;stroke:#0000ff;stroke-linecap:square;stroke-width:3;"/>
    </g>
    <g id="line2d_18"/>
    <g id="text_16">
     <!-- Asian -->
     <g transform="translate(324.985838 199.506094)scale(0.17 -0.17)">
      <defs>
       <path d="M 34.1875 63.1875 
L 20.796875 26.90625 
L 47.609375 26.90625 
z
M 28.609375 72.90625 
L 39.796875 72.90625 
L 67.578125 0 
L 57.328125 0 
L 50.6875 18.703125 
L 17.828125 18.703125 
L 11.1875 0 
L 0.78125 0 
z
" id="DejaVuSans-65"/>
      </defs>
      <use xlink:href="#DejaVuSans-65"/>
      <use x="68.408203" xlink:href="#DejaVuSans-115"/>
      <use x="120.507812" xlink:href="#DejaVuSans-105"/>
      <use x="148.291016" xlink:href="#DejaVuSans-97"/>
      <use x="209.570312" xlink:href="#DejaVuSans-110"/>
     </g>
    </g>
    <g id="line2d_19">
     <path d="M 277.385838 218.508906 
L 311.385838 218.508906 
" style="fill:none;stroke:#008000;stroke-dasharray:11.1,4.8;stroke-dashoffset:0;stroke-width:3;"/>
    </g>
    <g id="line2d_20"/>
    <g id="text_17">
     <!-- Black -->
     <g transform="translate(324.985838 224.458906)scale(0.17 -0.17)">
      <defs>
       <path d="M 19.671875 34.8125 
L 19.671875 8.109375 
L 35.5 8.109375 
Q 43.453125 8.109375 47.28125 11.40625 
Q 51.125 14.703125 51.125 21.484375 
Q 51.125 28.328125 47.28125 31.5625 
Q 43.453125 34.8125 35.5 34.8125 
z
M 19.671875 64.796875 
L 19.671875 42.828125 
L 34.28125 42.828125 
Q 41.5 42.828125 45.03125 45.53125 
Q 48.578125 48.25 48.578125 53.8125 
Q 48.578125 59.328125 45.03125 62.0625 
Q 41.5 64.796875 34.28125 64.796875 
z
M 9.8125 72.90625 
L 35.015625 72.90625 
Q 46.296875 72.90625 52.390625 68.21875 
Q 58.5 63.53125 58.5 54.890625 
Q 58.5 48.1875 55.375 44.234375 
Q 52.25 40.28125 46.1875 39.3125 
Q 53.46875 37.75 57.5 32.78125 
Q 61.53125 27.828125 61.53125 20.40625 
Q 61.53125 10.640625 54.890625 5.3125 
Q 48.25 0 35.984375 0 
L 9.8125 0 
z
" id="DejaVuSans-66"/>
       <path d="M 9.078125 75.984375 
L 18.109375 75.984375 
L 18.109375 31.109375 
L 44.921875 54.6875 
L 56.390625 54.6875 
L 27.390625 29.109375 
L 57.625 0 
L 45.90625 0 
L 18.109375 26.703125 
L 18.109375 0 
L 9.078125 0 
z
" id="DejaVuSans-107"/>
      </defs>
      <use xlink:href="#DejaVuSans-66"/>
      <use x="68.603516" xlink:href="#DejaVuSans-108"/>
      <use x="96.386719" xlink:href="#DejaVuSans-97"/>
      <use x="157.666016" xlink:href="#DejaVuSans-99"/>
      <use x="212.646484" xlink:href="#DejaVuSans-107"/>
     </g>
    </g>
    <g id="line2d_21">
     <path d="M 277.385838 243.461719 
L 311.385838 243.461719 
" style="fill:none;stroke:#00bfbf;stroke-dasharray:19.2,4.8,3,4.8;stroke-dashoffset:0;stroke-width:3;"/>
    </g>
    <g id="line2d_22"/>
    <g id="text_18">
     <!-- Hispanic -->
     <g transform="translate(324.985838 249.411719)scale(0.17 -0.17)">
      <defs>
       <path d="M 9.8125 72.90625 
L 19.671875 72.90625 
L 19.671875 43.015625 
L 55.515625 43.015625 
L 55.515625 72.90625 
L 65.375 72.90625 
L 65.375 0 
L 55.515625 0 
L 55.515625 34.71875 
L 19.671875 34.71875 
L 19.671875 0 
L 9.8125 0 
z
" id="DejaVuSans-72"/>
       <path d="M 18.109375 8.203125 
L 18.109375 -20.796875 
L 9.078125 -20.796875 
L 9.078125 54.6875 
L 18.109375 54.6875 
L 18.109375 46.390625 
Q 20.953125 51.265625 25.265625 53.625 
Q 29.59375 56 35.59375 56 
Q 45.5625 56 51.78125 48.09375 
Q 58.015625 40.1875 58.015625 27.296875 
Q 58.015625 14.40625 51.78125 6.484375 
Q 45.5625 -1.421875 35.59375 -1.421875 
Q 29.59375 -1.421875 25.265625 0.953125 
Q 20.953125 3.328125 18.109375 8.203125 
z
M 48.6875 27.296875 
Q 48.6875 37.203125 44.609375 42.84375 
Q 40.53125 48.484375 33.40625 48.484375 
Q 26.265625 48.484375 22.1875 42.84375 
Q 18.109375 37.203125 18.109375 27.296875 
Q 18.109375 17.390625 22.1875 11.75 
Q 26.265625 6.109375 33.40625 6.109375 
Q 40.53125 6.109375 44.609375 11.75 
Q 48.6875 17.390625 48.6875 27.296875 
z
" id="DejaVuSans-112"/>
      </defs>
      <use xlink:href="#DejaVuSans-72"/>
      <use x="75.195312" xlink:href="#DejaVuSans-105"/>
      <use x="102.978516" xlink:href="#DejaVuSans-115"/>
      <use x="155.078125" xlink:href="#DejaVuSans-112"/>
      <use x="218.554688" xlink:href="#DejaVuSans-97"/>
      <use x="279.833984" xlink:href="#DejaVuSans-110"/>
      <use x="343.212891" xlink:href="#DejaVuSans-105"/>
      <use x="370.996094" xlink:href="#DejaVuSans-99"/>
     </g>
    </g>
    <g id="line2d_23">
     <path d="M 277.385838 268.414531 
L 311.385838 268.414531 
" style="fill:none;stroke:#ff0000;stroke-dasharray:3,4.95;stroke-dashoffset:0;stroke-width:3;"/>
    </g>
    <g id="line2d_24"/>
    <g id="text_19">
     <!-- White -->
     <g transform="translate(324.985838 274.364531)scale(0.17 -0.17)">
      <defs>
       <path d="M 3.328125 72.90625 
L 13.28125 72.90625 
L 28.609375 11.28125 
L 43.890625 72.90625 
L 54.984375 72.90625 
L 70.3125 11.28125 
L 85.59375 72.90625 
L 95.609375 72.90625 
L 77.296875 0 
L 64.890625 0 
L 49.515625 63.28125 
L 33.984375 0 
L 21.578125 0 
z
" id="DejaVuSans-87"/>
       <path d="M 54.890625 33.015625 
L 54.890625 0 
L 45.90625 0 
L 45.90625 32.71875 
Q 45.90625 40.484375 42.875 44.328125 
Q 39.84375 48.1875 33.796875 48.1875 
Q 26.515625 48.1875 22.3125 43.546875 
Q 18.109375 38.921875 18.109375 30.90625 
L 18.109375 0 
L 9.078125 0 
L 9.078125 75.984375 
L 18.109375 75.984375 
L 18.109375 46.1875 
Q 21.34375 51.125 25.703125 53.5625 
Q 30.078125 56 35.796875 56 
Q 45.21875 56 50.046875 50.171875 
Q 54.890625 44.34375 54.890625 33.015625 
z
" id="DejaVuSans-104"/>
      </defs>
      <use xlink:href="#DejaVuSans-87"/>
      <use x="98.876953" xlink:href="#DejaVuSans-104"/>
      <use x="162.255859" xlink:href="#DejaVuSans-105"/>
      <use x="190.039062" xlink:href="#DejaVuSans-116"/>
      <use x="229.248047" xlink:href="#DejaVuSans-101"/>
     </g>
    </g>
   </g>
  </g>
 </g>
 <defs>
  <clipPath id="p627d7a5af8">
   <rect height="253" width="336.183182" x="76.52" y="40.2"/>
  </clipPath>
 </defs>
</svg>
